<?xml version="1.0" encoding="utf-8"?>
<!-- Generator: Adobe Illustrator 17.0.0, SVG Export Plug-In . SVG Version: 6.00 Build 0)  -->
<!DOCTYPE svg PUBLIC "-//W3C//DTD SVG 1.1 Basic//EN" "http://www.w3.org/Graphics/SVG/1.1/DTD/svg11-basic.dtd">
<svg version="1.1" baseProfile="basic" id="Calque_1"
	 xmlns="http://www.w3.org/2000/svg" xmlns:xlink="http://www.w3.org/1999/xlink" x="0px" y="0px" width="2000px" height="2000px"
	 viewBox="0 0 2000 2000" xml:space="preserve">
<path display="none" fill="none" stroke="#000000" stroke-width="5" stroke-miterlimit="10" d="M1000,0C1000,0,0,0,0,1000
	c0,0,0,1000,1000,1000s1000-1000,1000-1000S2000,0,1000,0z"/>
<path fill="#EA4F51" d="M1138.99,1189.789c-11.05-28.876-71.196-30.753-134.348-4.182c-63.143,26.571-105.37,71.521-94.32,100.397
	c11.05,28.885,71.196,30.753,134.339,4.182C1107.814,1263.624,1150.04,1218.673,1138.99,1189.789z"/>
<path fill="#EA4F51" d="M2000,952.853c0-29.4-39.278-53.229-87.725-53.229c-48.446,0-87.725,23.829-87.725,53.229
	c0,29.391,39.278,53.22,87.725,53.22C1960.722,1006.073,2000,982.244,2000,952.853z"/>
<path fill="#EA4F51" d="M1537.994,1002.851c-64.301-16.494-154.057,11.936-200.497,63.506
	c-46.431,51.561-34.765,164.881,32.35,123.231c51.086-31.696,149.553-49.203,200.497-63.497
	C1649.209,1103.947,1602.295,1019.354,1537.994,1002.851z"/>
<path fill="#EA4F51" d="M1817.148,1466.444c-38.662-56.608,63.701-322.48-3.114-355.232
	c-64.759-31.74-259.918,187.383-340.115,187.383c-80.205,0-177.44-51.412-242.207-19.664
	c-66.807,32.744-62.369,130.906-101.023,187.514c-37.471,54.87-141.051,99.9-141.051,167.841
	c0,67.95,103.579,112.98,141.051,167.841c38.654,56.608,34.216,154.778,101.023,187.522c56.64,27.767,138.111-8.077,211.305-17.507
	c20.268-2.052,40.877-1.956,61.795,0c73.194,9.43,154.674,45.274,211.305,17.507c66.816-32.744,62.369-130.915,101.031-187.522
	c37.463-54.861,141.042-99.891,141.042-167.841C1958.19,1566.344,1854.611,1521.314,1817.148,1466.444z"/>
</svg>
