<?xml version="1.0" encoding="utf-8"?>
<!-- Generator: Adobe Illustrator 17.0.0, SVG Export Plug-In . SVG Version: 6.00 Build 0)  -->
<!DOCTYPE svg PUBLIC "-//W3C//DTD SVG 1.1 Basic//EN" "http://www.w3.org/Graphics/SVG/1.1/DTD/svg11-basic.dtd">
<svg version="1.1" baseProfile="basic" id="Calque_1"
	 xmlns="http://www.w3.org/2000/svg" xmlns:xlink="http://www.w3.org/1999/xlink" x="0px" y="0px" width="150.879px"
	 height="422.867px" viewBox="0 0 150.879 422.867" xml:space="preserve">
<path id="path3828" nodetypes="ccccccc" connector-curvature="0" fill="#4EAE33" stroke="#010202" d="
	M148.804,99.928h-4.198v34.516h4.11c1.436,0,2.166-1.001,2.166-2.166V101.74C150.881,100.635,150.073,99.928,148.804,99.928
	L148.804,99.928z"/>
<path id="path3830" nodetypes="ccccccc" connector-curvature="0" fill="#4EAE33" stroke="#010202" d="
	M148.804,303.693h-4.198v-34.516h4.11c1.436,0,2.166,1.001,2.166,2.166v30.538C150.881,302.987,150.073,303.694,148.804,303.693
	L148.804,303.693z"/>
<path id="path3826" nodetypes="cccccccccccccccccc" connector-curvature="0" fill="#45494D" stroke="#010202" d="
	M149.335,28.245h-14.01v335.599h6.555v13.938c0,1.557,1.308,4.185,2.416,4.185h4.881c0.895,0,1.702-0.691,1.702-1.702v-65.244
	c0-8.619-5.389-8.725-5.389-11.446v-34.604c0-2.456,5.259-3.06,5.259-10.076V144.343c0-6.955-5.259-7.423-5.259-10.076l0.125-34.029
	c0-2.344,5.259-4.149,5.259-10.386l-0.003-59.806C150.88,29.064,150.397,28.245,149.335,28.245L149.335,28.245z"/>
<path id="path3832" nodetypes="cccccccc" connector-curvature="0" fill="#45494D" stroke="#010202" d="
	M113.47,6.844V2.656c0-1.257-1.284-2.656-2.656-2.656h-26.25C44.07,0,7.824,32.662,1.612,55.844
	c-0.283,1.058-0.385,3.182,1.458,3.182h4.662L113.47,6.844z"/>
<path id="path3925" nodetypes="ccccccccc" connector-curvature="0" fill="#4EAE33" stroke="#010202" d="
	M136.512,8.383V421.07c0,1.023-0.506,1.797-1.797,1.797H85.075C33.395,422.867,0,377.169,0,337.792V89.851
	C0,31.966,56.764,5.132,84.719,5.132h48.791C135.996,5.132,136.512,6.5,136.512,8.383L136.512,8.383z"/>
<path id="path3871" ry="12.5" rx="12.5" cx="513.92859" type="arc" cy="111.07143" fill="#45494D" stroke="#010202" stroke-width="0.8251" stroke-linecap="round" stroke-linejoin="round" d="
	M87.355,200.042c0,8.367-6.783,15.15-15.15,15.15s-15.15-6.783-15.15-15.15c0-8.367,6.783-15.15,15.15-15.15
	S87.355,191.674,87.355,200.042z"/>
<path id="path3873" ry="12.5" rx="12.5" cx="513.92859" type="arc" cy="111.07143" fill="#45494D" stroke="#010202" stroke-width="0.8251" stroke-linecap="round" stroke-linejoin="round" d="
	M87.355,262.671c0,8.367-6.783,15.15-15.15,15.15s-15.15-6.783-15.15-15.15c0-8.367,6.783-15.15,15.15-15.15
	S87.355,254.304,87.355,262.671z"/>
<path id="path3875" ry="12.5" rx="12.5" cx="513.92859" type="arc" cy="111.07143" fill="#45494D" stroke="#010202" stroke-width="0.8251" stroke-linecap="round" stroke-linejoin="round" d="
	M40.89,246.507c-8.367,0-15.15-6.783-15.15-15.15s6.783-15.15,15.15-15.15s15.15,6.783,15.15,15.15S49.257,246.507,40.89,246.507z"
	/>
<path id="path3877" ry="12.5" rx="12.5" cx="513.92859" type="arc" cy="111.07143" fill="#45494D" stroke="#010202" stroke-width="0.8251" stroke-linecap="round" stroke-linejoin="round" d="
	M103.519,246.507c-8.367,0-15.15-6.783-15.15-15.15s6.783-15.15,15.15-15.15s15.15,6.783,15.15,15.15
	S111.887,246.507,103.519,246.507z"/>
<rect id="rect3890" x="103.264" y="43.469" fill="#45494D" stroke="#010202" stroke-linecap="round" stroke-linejoin="round" width="22.188" height="6.375"/>
<path id="path3907" ry="32.0625" rx="32.0625" cx="513.4375" type="arc" cy="258.1875" fill="#45494D" stroke="#010202" stroke-linecap="round" stroke-linejoin="round" d="
	M104.389,113.469c0,17.708-14.355,32.063-32.063,32.063s-32.063-14.355-32.063-32.063s14.355-32.063,32.063-32.063
	S104.389,95.761,104.389,113.469z"/>
<path id="path3909" ry="32.0625" rx="32.0625" cx="513.4375" type="arc" cy="258.1875" fill="#45494D" stroke="#010202" stroke-width="1.426" stroke-linecap="round" stroke-linejoin="round" d="
	M94.81,113.691c0,12.418-10.066,22.484-22.484,22.484s-22.484-10.066-22.484-22.484c0-12.418,10.066-22.484,22.484-22.484
	S94.81,101.274,94.81,113.691z"/>
<path id="path3911" connector-curvature="0" fill="#010202" stroke="#010202" stroke-width="0.0313" stroke-linecap="round" stroke-linejoin="round" d="
	M71.164,87.355c0-2.145,0.006-3.412,0.016-3.48c0.03-0.207,0.132-0.404,0.289-0.562c0.475-0.475,1.283-0.334,1.576,0.275
	c0.11,0.228,0.102-0.049,0.102,3.718l0,3.402l-0.701-0.001c-0.386,0-0.832,0.004-0.992,0.01l-0.291,0.011L71.164,87.355
	L71.164,87.355z"/>
<path id="path3913" connector-curvature="0" fill="#010202" stroke="#010202" stroke-width="0.0313" stroke-linecap="round" stroke-linejoin="round" d="
	M72.045,143.776c-0.389-0.044-0.725-0.333-0.847-0.732c-0.024-0.079-0.027-0.33-0.031-3.239l-0.005-3.153l0.231,0.013
	c0.127,0.007,0.574,0.013,0.993,0.013h0.762l-0.004,3.156l-0.004,3.156l-0.035,0.102c-0.104,0.305-0.346,0.545-0.651,0.647
	C72.353,143.772,72.164,143.789,72.045,143.776L72.045,143.776L72.045,143.776z"/>
<path id="path3915" connector-curvature="0" fill="#010202" stroke="#010202" stroke-width="0.0313" stroke-linecap="round" stroke-linejoin="round" d="
	M95.311,113.759c0-0.355-0.006-0.801-0.013-0.993l-0.013-0.348l3.231,0.004l3.231,0.004l0.115,0.042
	c0.431,0.157,0.699,0.555,0.67,0.994c-0.016,0.243-0.112,0.458-0.281,0.631c-0.133,0.136-0.258,0.208-0.488,0.282
	c-0.05,0.016-0.711,0.021-3.258,0.025l-3.195,0.005L95.311,113.759L95.311,113.759L95.311,113.759z"/>
<path id="path3917" connector-curvature="0" fill="#010202" stroke="#010202" stroke-width="0.0313" stroke-linecap="round" stroke-linejoin="round" d="
	M42.639,114.387c-0.215-0.028-0.425-0.137-0.578-0.299c-0.533-0.563-0.264-1.463,0.492-1.647c0.071-0.017,0.689-0.021,3.45-0.021
	l3.364-0.001l-0.012,0.332c-0.007,0.183-0.012,0.629-0.012,0.992v0.66l-3.305-0.002C44.22,114.4,42.691,114.393,42.639,114.387
	L42.639,114.387z"/>
<path id="rect3919" fill="#45494D" stroke="#010202" stroke-linecap="round" stroke-linejoin="round" d="M85.764,298.344h19
	c1.864,0,3.375,1.511,3.375,3.375v18.375c0,1.864-1.511,3.375-3.375,3.375h-19c-1.864,0-3.375-1.511-3.375-3.375v-18.375
	C82.389,299.855,83.9,298.344,85.764,298.344z"/>
<path id="path3921" ry="8.84375" rx="8.84375" cx="743.96875" type="arc" cy="340.15625" fill="#010202" stroke="#010202" stroke-linecap="round" stroke-linejoin="round" d="
	M104.014,311.125c0,4.884-3.959,8.844-8.844,8.844s-8.844-3.959-8.844-8.844s3.959-8.844,8.844-8.844
	S104.014,306.241,104.014,311.125L104.014,311.125z"/>
<path id="path3014" arg2="3.1415927" arg1="2.0943951" r2="3.3105094" r1="6.6210189" sides="3" cx="138.28357" type="star" cy="856.82373" flatsided="true" rounded="0" randomized="0" transform-center-x="-1.8296276" transform-center-y="-1.0018697e-005" fill="#010202" stroke="#010202" stroke-width="0.9047" stroke-linecap="round" stroke-linejoin="round" d="
	M99.483,237.725v-12.676l10.978,6.338L99.483,237.725z"/>
<path id="path3788" arg2="3.1415927" arg1="2.0943951" r2="3.3105094" r1="6.6210189" sides="3" cx="138.28357" type="star" cy="856.82373" flatsided="true" rounded="0" randomized="0" transform-center-x="1.8296245" transform-center-y="-1.0018697e-005" fill="#010202" stroke="#010202" stroke-width="0.9047" stroke-linecap="round" stroke-linejoin="round" d="
	M45.086,237.725v-12.676l-10.978,6.338L45.086,237.725z"/>
<path id="path3790" arg2="3.1415927" arg1="2.0943951" r2="3.3105094" r1="6.6210189" sides="3" cx="138.28357" type="star" cy="856.82373" flatsided="true" rounded="0" randomized="0" transform-center-y="-1.8296239" fill="#010202" stroke="#010202" stroke-width="0.9047" stroke-linecap="round" stroke-linejoin="round" d="
	M78.523,204.361H65.847l6.338-10.978L78.523,204.361z"/>
<path id="path3792" arg2="3.1415927" arg1="2.0943951" r2="3.3105094" r1="6.6210189" sides="3" cx="138.28357" type="star" cy="856.82373" flatsided="true" rounded="0" randomized="0" transform-center-y="1.829623" fill="#010202" stroke="#010202" stroke-width="0.9047" stroke-linecap="round" stroke-linejoin="round" d="
	M78.523,258.758H65.847l6.338,10.978L78.523,258.758z"/>
</svg>
