<?xml version="1.0" encoding="utf-8"?>
<!-- Generator: Adobe Illustrator 17.0.0, SVG Export Plug-In . SVG Version: 6.00 Build 0)  -->
<!DOCTYPE svg PUBLIC "-//W3C//DTD SVG 1.1 Basic//EN" "http://www.w3.org/Graphics/SVG/1.1/DTD/svg11-basic.dtd">
<svg version="1.1" baseProfile="basic" id="Calque_1"
	 xmlns="http://www.w3.org/2000/svg" xmlns:xlink="http://www.w3.org/1999/xlink" x="0px" y="0px" width="150.701px"
	 height="423.484px" viewBox="0 0 150.701 423.484" xml:space="preserve">
<path id="path3822" nodetypes="ccccccc" connector-curvature="0" fill="#E62F1F" stroke="#010202" d="
	M2.077,99.928h4.198v34.516h-4.11c-1.435,0-2.166-1.001-2.166-2.166V101.74C0,100.635,0.808,99.928,2.077,99.928L2.077,99.928z"/>
<path id="path3824" nodetypes="ccccccc" connector-curvature="0" fill="#E62F1F" stroke="#010202" d="
	M2.077,303.693h4.198v-34.516h-4.11c-1.435,0-2.166,1.001-2.166,2.166v30.538C0,302.987,0.808,303.694,2.077,303.693L2.077,303.693z
	"/>
<path id="path3820" nodetypes="cccccccccccccccccc" connector-curvature="0" fill="#45494D" stroke="#010202" d="
	M1.547,28.245h14.01v335.599H9.001v13.938c0,1.557-1.308,4.185-2.416,4.185H1.704c-0.895,0-1.702-0.691-1.702-1.702v-65.244
	c0-8.619,5.389-8.725,5.389-11.446v-34.604c0-2.456-5.259-3.06-5.259-10.076V144.343c0-6.955,5.259-7.423,5.259-10.076
	l-0.125-34.029c0-2.344-5.259-4.149-5.259-10.386V30.046c-0.01-0.982,0.474-1.801,1.536-1.801L1.547,28.245z"/>
<path id="path3818" nodetypes="cccccccc" connector-curvature="0" fill="#45494D" stroke="#010202" d="
	M37.032,6.844V2.656C37.032,1.399,38.316,0,39.689,0h26.25c40.494,0,76.74,32.662,82.952,55.844
	c0.283,1.058,0.385,3.182-1.458,3.182h-4.662L37.032,6.844z"/>
<path id="path3923" nodetypes="ccccccccc" connector-curvature="0" fill="#E62F1F" stroke="#010202" d="M14.189,9
	v412.687c0,1.023,0.506,1.797,1.797,1.797h49.641c51.679,0,85.075-45.698,85.075-85.075V90.469
	c0-57.885-56.764-84.719-84.719-84.719H17.192C14.705,5.75,14.189,7.118,14.189,9L14.189,9z"/>
<path id="path3093" connector-curvature="0" fill="#45494D" stroke="#010202" stroke-linecap="round" stroke-linejoin="round" d="
	M25.468,43.467h7.608v-7.513h6.313v7.545h7.481v6.313h-7.45v7.797h-6.408v-7.797H25.5L25.468,43.467z"/>
<path id="path3095" ry="12.5" rx="12.5" cx="513.92859" type="arc" cy="111.07143" fill="#45494D" stroke="#010202" stroke-width="0.8251" stroke-linecap="round" stroke-linejoin="round" d="
	M93.089,79.506c0,8.367-6.783,15.15-15.15,15.15s-15.15-6.783-15.15-15.15s6.783-15.15,15.15-15.15S93.089,71.139,93.089,79.506z"/>
<path id="path3865" ry="12.5" rx="12.5" cx="513.92859" type="arc" cy="111.07143" fill="#45494D" stroke="#010202" stroke-width="0.8251" stroke-linecap="round" stroke-linejoin="round" d="
	M93.089,142.135c0,8.367-6.783,15.15-15.15,15.15s-15.15-6.783-15.15-15.15c0-8.367,6.783-15.15,15.15-15.15
	S93.089,133.768,93.089,142.135z"/>
<path id="path3867" ry="12.5" rx="12.5" cx="513.92859" type="arc" cy="111.07143" fill="#45494D" stroke="#010202" stroke-width="0.8251" stroke-linecap="round" stroke-linejoin="round" d="
	M46.624,125.971c-8.367,0-15.15-6.783-15.15-15.15s6.783-15.15,15.15-15.15s15.15,6.783,15.15,15.15S54.991,125.971,46.624,125.971z
	"/>
<path id="path3869" ry="12.5" rx="12.5" cx="513.92859" type="arc" cy="111.07143" fill="#45494D" stroke="#010202" stroke-width="0.8251" stroke-linecap="round" stroke-linejoin="round" d="
	M109.253,125.971c-8.367,0-15.15-6.783-15.15-15.15s6.783-15.15,15.15-15.15s15.15,6.783,15.15,15.15
	S117.621,125.971,109.253,125.971z"/>
<path id="path3879" ry="12.5" rx="12.5" cx="513.92859" type="arc" cy="111.07143" fill="#999596" stroke="#010202" stroke-width="0.7427" stroke-linecap="round" stroke-linejoin="round" d="
	M72.009,305.264c0,9.295-7.535,16.829-16.829,16.829s-16.829-7.535-16.829-16.829c0-9.295,7.535-16.829,16.829-16.829
	S72.009,295.969,72.009,305.264z"/>
<path id="path3881" ry="12.5" rx="12.5" cx="513.92859" type="arc" cy="111.07143" fill="#3A3D40" stroke="#010202" stroke-width="0.9945" stroke-linecap="round" stroke-linejoin="round" d="
	M67.749,305.417c0,6.942-5.627,12.569-12.569,12.569s-12.569-5.627-12.569-12.569c0-6.942,5.627-12.569,12.569-12.569
	S67.749,298.475,67.749,305.417z"/>
<path id="path3883" nodetypes="ccccccccccccc" connector-curvature="0" fill="#010202" stroke="#010202" d="
	M46.338,304.747h2.484v7.818c4.164,0,8.817,0,12.602,0v-7.818h2.484c-2.736-2.545-6.419-6.02-8.785-8.184
	C52.26,299.195,49.243,302.035,46.338,304.747L46.338,304.747z M52.195,304.878c1.938,0,4.1,0,5.857,0v4.994
	c-1.936,0-4.098,0-5.857,0V304.878z"/>
<path id="path3888" ry="32.0625" rx="32.0625" cx="513.4375" type="arc" cy="258.1875" fill="#45494D" stroke="#010202" stroke-linecap="round" stroke-linejoin="round" d="
	M110.189,227.094c0,17.708-14.355,32.063-32.063,32.063s-32.063-14.355-32.063-32.063s14.355-32.063,32.063-32.063
	S110.189,209.386,110.189,227.094z"/>
<path id="path3892" ry="32.0625" rx="32.0625" cx="513.4375" type="arc" cy="258.1875" fill="#45494D" stroke="#010202" stroke-width="1.426" stroke-linecap="round" stroke-linejoin="round" d="
	M100.61,227.316c0,12.418-10.066,22.484-22.484,22.484s-22.484-10.066-22.484-22.484s10.066-22.484,22.484-22.484
	S100.61,214.899,100.61,227.316z"/>
<path id="path3899" connector-curvature="0" fill="#010202" stroke="#010202" stroke-width="0.0313" stroke-linecap="round" stroke-linejoin="round" d="
	M76.964,200.98c0-2.145,0.01-3.412,0.016-3.48c0.03-0.207,0.132-0.404,0.289-0.562c0.475-0.475,1.283-0.334,1.576,0.275
	c0.11,0.228,0.102-0.049,0.103,3.718l0,3.402l-0.701-0.001c-0.386,0-0.832,0.004-0.992,0.01l-0.291,0.011V200.98L76.964,200.98z"/>
<path id="path3901" connector-curvature="0" fill="#010202" stroke="#010202" stroke-width="0.0313" stroke-linecap="round" stroke-linejoin="round" d="
	M77.845,257.401c-0.389-0.044-0.725-0.333-0.847-0.732c-0.024-0.079-0.027-0.33-0.031-3.239l-0.01-3.153l0.231,0.013
	c0.127,0.007,0.574,0.013,0.993,0.013h0.762v3.156v3.156l-0.035,0.102c-0.104,0.305-0.346,0.545-0.651,0.647
	c-0.1,0.033-0.289,0.051-0.408,0.038l0,0H77.845z"/>
<path id="path3903" connector-curvature="0" fill="#010202" stroke="#010202" stroke-width="0.0313" stroke-linecap="round" stroke-linejoin="round" d="
	M101.111,227.384c0-0.355-0.01-0.801-0.013-0.993l-0.013-0.348l3.231,0.004l3.231,0.004l0.115,0.042
	c0.431,0.157,0.699,0.555,0.67,0.994c-0.016,0.243-0.112,0.458-0.281,0.631c-0.133,0.136-0.258,0.208-0.488,0.282
	c-0.05,0.016-0.712,0.021-3.258,0.025l-3.195,0.005L101.111,227.384L101.111,227.384L101.111,227.384z"/>
<path id="path3905" connector-curvature="0" fill="#010202" stroke="#010202" stroke-width="0.0313" stroke-linecap="round" stroke-linejoin="round" d="
	M48.439,228.012c-0.215-0.028-0.425-0.137-0.578-0.299c-0.533-0.563-0.264-1.463,0.492-1.647c0.071-0.017,0.689-0.021,3.45-0.021
	l3.364-0.001l-0.012,0.332c-0.01,0.183-0.012,0.629-0.012,0.992v0.66l-3.305-0.002C50.02,228.025,48.491,228.018,48.439,228.012
	L48.439,228.012z"/>
<path id="path3808" connector-curvature="0" fill="#FFFFFF" d="M70.621,87.614c0-0.011,1.23-1.895,2.733-4.19l2.733-4.173
	l-2.422-3.741c-1.332-2.057-2.452-3.784-2.49-3.837l-0.068-0.096h1.874h1.874l1.607,2.577c0.884,1.417,1.622,2.571,1.641,2.565
	c0.019-0.011,0.738-1.162,1.598-2.568l1.564-2.557l1.846-0.011c1.015-0.011,1.846,0,1.846,0.011s-1.113,1.756-2.474,3.88
	c-1.416,2.211-2.467,3.886-2.459,3.918c0.01,0.031,1.232,1.888,2.719,4.127c1.487,2.239,2.704,4.08,2.704,4.091
	c0,0.011-0.864,0.019-1.919,0.019H81.61l-1.784-2.788c-1.441-2.252-1.792-2.779-1.827-2.742c-0.024,0.025-0.836,1.281-1.804,2.789
	l-1.761,2.743h-1.907c-1.049,0-1.907-0.011-1.907-0.017L70.621,87.614z"/>
<path id="path3810" connector-curvature="0" fill="#FFFFFF" d="M101.589,118.693c0.06-0.159,6.066-15.578,6.142-15.769
	l0.087-0.219h1.691h1.691l3.197,7.981c1.758,4.39,3.205,8.001,3.215,8.025c0.014,0.035-0.335,0.042-1.727,0.034l-1.745-0.01
	l-0.703-1.831l-0.703-1.831l-3.224,0.01l-3.224,0.01l-0.665,1.831l-0.665,1.831h-1.696c-1.601,0-1.695-0.01-1.673-0.061
	L101.589,118.693z M111.692,112.368c-0.01-0.024-0.51-1.373-1.113-2.997c-0.603-1.625-1.107-2.941-1.12-2.926
	c-0.017,0.02-1.306,3.548-2.165,5.924c-0.013,0.034,0.442,0.043,2.199,0.043C111.251,112.411,111.705,112.401,111.692,112.368
	L111.692,112.368z"/>
<path id="path3814" connector-curvature="0" fill="#FFFFFF" d="M71.995,142.48v-8.01l3.96,0.017
	c3.948,0.017,4.374,0.03,5.166,0.15c1.201,0.182,2.187,0.796,2.838,1.767c0.989,1.476,0.83,3.4-0.389,4.693
	c-0.284,0.301-0.556,0.512-0.936,0.725l-0.295,0.165l0.239,0.079c0.582,0.192,1.197,0.544,1.61,0.922
	c0.485,0.443,0.902,1.147,1.083,1.827c0.083,0.309,0.092,0.409,0.095,0.991c0,0.505-0.011,0.71-0.061,0.936
	c-0.202,0.919-0.647,1.773-1.238,2.376c-0.756,0.771-1.684,1.162-3.009,1.268c-0.66,0.053-3.875,0.103-6.676,0.104h-2.386v-8.01
	L71.995,142.48z M79.978,147.763c0.74-0.061,1.134-0.211,1.525-0.58c0.404-0.381,0.572-0.822,0.57-1.5
	c0-1.046-0.568-1.778-1.552-2.008c-0.57-0.133-0.904-0.151-3.134-0.168l-2.177-0.016v2.154v2.154h2.177
	C78.585,147.798,79.75,147.782,79.978,147.763L79.978,147.763L79.978,147.763z M78.69,140.842c1.167-0.033,1.401-0.067,1.822-0.266
	c0.44-0.209,0.75-0.556,0.897-1.003c0.1-0.306,0.1-0.93-0.001-1.241c-0.189-0.583-0.622-0.959-1.287-1.116
	c-0.208-0.049-0.571-0.059-2.575-0.072l-2.334-0.014v1.873v1.873h1.215c0.668,0,1.687-0.015,2.264-0.031l0,0L78.69,140.842z"/>
<path id="path3816" connector-curvature="0" fill="#FFFFFF" d="M45.097,115.695v-3.369l-2.913-4.605
	c-1.602-2.533-2.913-4.612-2.913-4.62c0-0.01,0.836-0.014,1.858-0.014l1.858,0l1.884,3.172c1.401,2.359,1.894,3.161,1.922,3.131
	c0.021-0.022,0.859-1.45,1.861-3.172l1.822-3.131h1.832h1.832l-0.05,0.079c-0.028,0.043-1.348,2.129-2.934,4.634l-2.884,4.556v3.355
	v3.355h-1.587h-1.587L45.097,115.695L45.097,115.695z"/>
</svg>
