<?xml version="1.0" encoding="utf-8"?>
<!-- Generator: Adobe Illustrator 17.0.0, SVG Export Plug-In . SVG Version: 6.00 Build 0)  -->
<!DOCTYPE svg PUBLIC "-//W3C//DTD SVG 1.1//EN" "http://www.w3.org/Graphics/SVG/1.1/DTD/svg11.dtd">
<svg version="1.1" id="Calque_1" xmlns="http://www.w3.org/2000/svg" xmlns:xlink="http://www.w3.org/1999/xlink" x="0px" y="0px"
	 width="595.28px" height="142.513px" viewBox="0 0 595.28 142.513" enable-background="new 0 0 595.28 142.513"
	 xml:space="preserve">
<pattern  y="-347" width="82.8" height="72" patternUnits="userSpaceOnUse" id="Unnamed_Pattern_7" viewBox="0 -72 82.8 72" overflow="visible">
	<g>
		<polygon fill="none" points="0,-72 82.8,-72 82.8,0 0,0 		"/>
		<g>
			<defs>
				<rect id="SVGID_1_" x="0" y="-72" width="82.8" height="72"/>
			</defs>
			<clipPath id="SVGID_2_">
				<use xlink:href="#SVGID_1_"  overflow="visible"/>
			</clipPath>
			<line clip-path="url(#SVGID_2_)" fill="none" stroke="#1E1E1C" stroke-width="9.6" x1="41.399" y1="-72" x2="41.399" y2="0"/>
			<line clip-path="url(#SVGID_2_)" fill="none" stroke="#1E1E1C" stroke-width="9.6" x1="13.799" y1="-72" x2="13.799" y2="0"/>
			<line clip-path="url(#SVGID_2_)" fill="none" stroke="#1E1E1C" stroke-width="9.6" x1="68.999" y1="-72" x2="68.999" y2="0"/>
			<line clip-path="url(#SVGID_2_)" fill="none" stroke="#1E1E1C" stroke-width="0.4" x1="49.8" y1="-72" x2="49.8" y2="0"/>
			<line clip-path="url(#SVGID_2_)" fill="none" stroke="#1E1E1C" stroke-width="0.4" x1="22.2" y1="-72" x2="22.2" y2="0"/>
			<line clip-path="url(#SVGID_2_)" fill="none" stroke="#1E1E1C" stroke-width="0.4" x1="77.399" y1="-72" x2="77.399" y2="0"/>
			<line clip-path="url(#SVGID_2_)" fill="none" stroke="#1E1E1C" stroke-width="0.4" x1="5.399" y1="-72" x2="5.399" y2="0"/>
			<line clip-path="url(#SVGID_2_)" fill="none" stroke="#1E1E1C" stroke-width="0.4" x1="32.999" y1="-72" x2="32.999" y2="0"/>
			<line clip-path="url(#SVGID_2_)" fill="none" stroke="#1E1E1C" stroke-width="0.4" x1="60.599" y1="-72" x2="60.599" y2="0"/>
		</g>
	</g>
</pattern>
<path fill="#010202" d="M37.594,140.513c-5.382,0-10.021-0.516-13.788-1.532c-5.57-1.502-10.06-4.299-13.348-8.314
	c-2.304-2.768-4.132-6.385-5.423-10.737c-1.264-4.253-1.905-9.692-1.905-16.166c0-10.985,1.989-21.1,5.912-30.062
	c3.952-9.032,9.67-16.466,16.996-22.095c4.42-3.423,9.414-6.116,14.836-8.002c5.381-1.871,11.718-3.072,18.838-3.569
	c2.098-0.147,4.129-0.221,6.037-0.221c5.886,0,10.955,0.711,15.065,2.112c5.61,1.917,10.109,5.228,13.375,9.843
	c0.01,0.014,0.019,0.027,0.029,0.042c2.055,3.045,3.668,6.569,4.793,10.474c1.117,3.884,1.683,8.445,1.683,13.558
	c0,4.359-0.402,8.81-1.194,13.228c-0.791,4.4-1.919,8.71-3.35,12.814c-1.437,4.113-3.196,8.054-5.228,11.716
	c-2.046,3.686-4.356,7.018-6.864,9.904c-4.759,5.495-10.341,9.559-16.588,12.077c-6.137,2.473-13.752,4.042-22.634,4.663
	C42.288,140.422,39.852,140.513,37.594,140.513 M60.993,54.586c-0.076,0-0.154,0.003-0.233,0.008
	c-1.649,0.116-3.244,0.982-4.876,2.65c-1.864,1.907-3.657,4.468-5.328,7.611c-1.717,3.228-3.271,6.966-4.619,11.11
	c-1.368,4.197-2.566,8.57-3.562,13c-0.995,4.428-1.761,8.837-2.276,13.104c-0.517,4.261-0.779,8.228-0.779,11.792
	c0,6.619,0.923,9.129,1.473,10.035c0.902,1.491,1.735,1.682,2.36,1.682c0.067,0,0.134-0.003,0.203-0.008
	c1.629-0.114,3.188-0.99,4.767-2.679c1.811-1.937,3.531-4.557,5.113-7.784c1.634-3.338,3.15-7.167,4.507-11.378
	c1.369-4.253,2.541-8.69,3.484-13.186c0.946-4.52,1.69-9.057,2.21-13.486c0.518-4.426,0.78-8.47,0.78-12.017
	c0-6.024-0.767-8.295-1.225-9.112C62.331,54.748,61.641,54.586,60.993,54.586"/>
<path fill="#FFFFFF" d="M35.568,135.881c-5.281,0-9.818-0.502-13.486-1.492c-5.332-1.437-9.623-4.106-12.754-7.93
	c-2.209-2.654-3.963-6.132-5.209-10.333c-1.232-4.146-1.857-9.474-1.857-15.836c0-10.825,1.957-20.783,5.815-29.598
	c3.873-8.851,9.472-16.132,16.64-21.641c4.324-3.348,9.208-5.982,14.511-7.826c5.284-1.837,11.521-3.018,18.538-3.508
	c2.071-0.145,4.075-0.218,5.956-0.218c5.759,0,10.702,0.69,14.691,2.05c5.374,1.835,9.681,5.003,12.803,9.415
	c2.002,2.965,3.563,6.378,4.655,10.167c1.087,3.78,1.637,8.233,1.637,13.237c0,4.291-0.396,8.673-1.176,13.024
	c-0.78,4.339-1.892,8.591-3.303,12.636c-1.416,4.051-3.147,7.932-5.147,11.536c-2.007,3.616-4.27,6.881-6.725,9.706
	c-4.639,5.356-10.072,9.314-16.147,11.763c-6.024,2.427-13.521,3.969-22.282,4.582C40.208,135.791,37.798,135.881,35.568,135.881
	 M58.966,49.954c-0.103,0-0.208,0.004-0.314,0.011c-1.917,0.134-3.809,1.142-5.622,2.995c-1.942,1.986-3.8,4.637-5.523,7.878
	c-1.748,3.287-3.329,7.087-4.698,11.295c-1.379,4.231-2.587,8.64-3.59,13.104c-1.003,4.467-1.776,8.914-2.296,13.22
	c-0.523,4.307-0.788,8.321-0.788,11.931c0,5.263,0.552,8.842,1.642,10.636c0.912,1.507,2.007,2.239,3.35,2.239h0.001
	c0.093,0,0.188-0.003,0.283-0.01c1.908-0.133,3.769-1.157,5.532-3.043c1.889-2.022,3.675-4.735,5.307-8.065
	c1.658-3.388,3.196-7.268,4.57-11.532c1.382-4.292,2.564-8.768,3.515-13.303c0.953-4.553,1.703-9.125,2.227-13.589
	c0.523-4.471,0.788-8.56,0.788-12.152c0-5.972-0.746-8.559-1.373-9.678C61.237,50.569,60.281,49.954,58.966,49.954"/>
<pattern  id="SVGID_3_" xlink:href="#Unnamed_Pattern_7" patternTransform="matrix(1 0 0 -1 -1205.6401 1290.4561)">
</pattern>
<path fill="url(#SVGID_3_)" d="M59.295,40.32c8.299-0.58,15.03,0.012,20.193,1.772c5.162,1.763,9.24,4.76,12.232,8.988
	c1.929,2.857,3.425,6.13,4.487,9.819c1.061,3.69,1.592,7.995,1.592,12.916c0,4.248-0.387,8.52-1.158,12.819
	c-0.774,4.302-1.859,8.453-3.257,12.459c-1.4,4.006-3.09,7.793-5.066,11.356c-1.979,3.565-4.175,6.734-6.586,9.508
	c-4.537,5.239-9.771,9.056-15.706,11.448c-5.935,2.392-13.245,3.893-21.93,4.501c-8.396,0.587-15.152,0.191-20.266-1.189
	c-5.116-1.379-9.169-3.894-12.159-7.545c-2.124-2.552-3.788-5.862-4.994-9.928c-1.208-4.064-1.809-9.233-1.809-15.507
	c0-10.712,1.904-20.421,5.718-29.134c3.811-8.71,9.24-15.773,16.285-21.187c4.246-3.287,8.975-5.839,14.186-7.651
	C46.267,41.954,52.347,40.806,59.295,40.32 M42.938,125.855c2.219-0.155,4.318-1.29,6.297-3.408
	c1.977-2.115,3.811-4.898,5.501-8.346c1.688-3.447,3.232-7.341,4.632-11.687c1.398-4.343,2.581-8.816,3.546-13.421
	c0.964-4.603,1.712-9.167,2.244-13.691c0.53-4.524,0.796-8.619,0.796-12.288c0-5.017-0.507-8.433-1.52-10.243
	c-1.013-1.811-2.485-2.649-4.415-2.514c-2.221,0.155-4.343,1.27-6.369,3.34c-2.027,2.073-3.933,4.787-5.718,8.144
	c-1.787,3.359-3.379,7.184-4.777,11.48c-1.4,4.296-2.606,8.7-3.619,13.209c-1.013,4.511-1.787,8.955-2.316,13.335
	c-0.532,4.38-0.796,8.404-0.796,12.07c0,5.501,0.602,9.247,1.809,11.237C39.439,125.064,41.006,125.991,42.938,125.855"/>
<path fill="#1E1E1C" d="M63.722,38.657c5.661,0,10.433,0.663,14.319,1.988c5.161,1.763,9.239,4.76,12.232,8.988
	c1.929,2.857,3.424,6.13,4.487,9.819c1.061,3.69,1.592,7.995,1.592,12.916c0,4.248-0.387,8.52-1.158,12.819
	c-0.774,4.302-1.859,8.453-3.257,12.46c-1.4,4.006-3.09,7.793-5.066,11.355c-1.979,3.565-4.175,6.734-6.586,9.508
	c-4.537,5.239-9.771,9.056-15.706,11.448c-5.935,2.392-13.245,3.893-21.93,4.501c-2.506,0.175-4.867,0.263-7.081,0.263
	c-5.203,0-9.597-0.484-13.185-1.452c-5.116-1.379-9.169-3.894-12.159-7.545c-2.124-2.552-3.789-5.862-4.994-9.928
	c-1.208-4.064-1.809-9.233-1.809-15.507c0-10.712,1.904-20.421,5.718-29.133c3.811-8.71,9.239-15.773,16.285-21.187
	c4.245-3.287,8.975-5.839,14.186-7.651c5.211-1.812,11.291-2.961,18.239-3.447C59.902,38.729,61.86,38.657,63.722,38.657
	 M41.126,124.421c0.12,0,0.241-0.005,0.364-0.013c2.219-0.155,4.318-1.29,6.297-3.408c1.977-2.115,3.811-4.899,5.501-8.347
	c1.687-3.447,3.232-7.341,4.632-11.687c1.398-4.343,2.581-8.816,3.546-13.42c0.963-4.603,1.712-9.167,2.244-13.691
	c0.529-4.524,0.796-8.619,0.796-12.288c0-5.017-0.507-8.433-1.52-10.243c-0.943-1.686-2.284-2.528-4.02-2.528
	c-0.13,0-0.261,0.005-0.395,0.014c-2.221,0.155-4.343,1.27-6.369,3.34c-2.027,2.073-3.933,4.787-5.718,8.144
	c-1.787,3.359-3.379,7.184-4.777,11.48c-1.4,4.296-2.606,8.7-3.619,13.209c-1.013,4.511-1.787,8.955-2.316,13.334
	c-0.532,4.38-0.796,8.404-0.796,12.07c0,5.501,0.602,9.247,1.809,11.237C37.915,123.489,39.361,124.421,41.126,124.421
	 M63.723,36.341v2.316V36.341c-1.909,0-3.94,0.074-6.037,0.221c-7.12,0.498-13.458,1.699-18.838,3.57
	c-5.422,1.885-10.416,4.579-14.843,8.007c-7.319,5.624-13.037,13.058-16.989,22.09c-3.923,8.962-5.912,19.076-5.912,30.062
	c0,6.474,0.641,11.913,1.906,16.167c1.289,4.347,3.115,7.962,5.428,10.743c3.287,4.011,7.776,6.806,13.342,8.307
	c3.767,1.016,8.406,1.531,13.788,1.531c2.257,0,4.694-0.091,7.242-0.269c8.882-0.621,16.498-2.19,22.635-4.663
	c6.248-2.518,11.829-6.582,16.591-12.08c2.505-2.883,4.815-6.214,6.861-9.9c2.032-3.662,3.791-7.604,5.228-11.716
	c1.432-4.104,2.559-8.415,3.35-12.814c0.793-4.42,1.195-8.871,1.195-13.229c0-5.112-0.566-9.674-1.683-13.557
	c-1.125-3.906-2.738-7.43-4.793-10.475c-0.01-0.014-0.019-0.028-0.029-0.042c-3.266-4.615-7.766-7.926-13.374-9.842
	C74.678,37.051,69.609,36.341,63.723,36.341 M41.126,122.105c-0.625,0-1.458-0.191-2.359-1.679
	c-0.552-0.909-1.475-3.418-1.475-10.038c0-3.564,0.262-7.531,0.779-11.791c0.516-4.268,1.282-8.677,2.277-13.106
	c0.996-4.429,2.194-8.803,3.561-12.998c1.349-4.145,2.903-7.882,4.62-11.11c1.671-3.143,3.464-5.704,5.329-7.613
	c1.631-1.667,3.226-2.533,4.875-2.649c0.08-0.006,0.158-0.009,0.233-0.009c0.648,0,1.339,0.163,1.999,1.343
	c0.458,0.818,1.225,3.089,1.225,9.113c0,3.548-0.263,7.591-0.78,12.018c-0.52,4.428-1.264,8.966-2.21,13.486
	c-0.943,4.495-2.115,8.932-3.484,13.186c-1.357,4.211-2.873,8.039-4.508,11.378c-1.581,3.226-3.302,5.845-5.112,7.783
	c-1.578,1.689-3.137,2.565-4.767,2.679C41.26,122.102,41.192,122.105,41.126,122.105"/>
<path fill="#010202" d="M114.012,134.243c-0.561,0-1.105-0.204-1.529-0.577c-0.465-0.408-0.747-0.986-0.783-1.604l-5.356-91.545
	c-0.074-1.267,0.885-2.357,2.15-2.446l33.004-2.308c0.055-0.004,0.11-0.006,0.164-0.006c1.197,0,2.21,0.921,2.307,2.133
	l4.227,53.168l26.397-56.416c0.356-0.762,1.098-1.27,1.936-1.329l14.331-1.002c0.054-0.004,0.108-0.006,0.162-0.006
	c0.754,0,1.465,0.368,1.9,0.993c0.466,0.669,0.546,1.534,0.21,2.276l-42.847,94.915c-0.351,0.777-1.099,1.298-1.949,1.357
	l-34.162,2.389C114.12,134.241,114.066,134.243,114.012,134.243"/>
<path fill="#FFFFFF" d="M111.986,129.611c-0.281,0-0.553-0.102-0.765-0.288c-0.232-0.204-0.373-0.493-0.391-0.802l-5.356-91.545
	c-0.037-0.633,0.442-1.178,1.076-1.223l33.004-2.308c0.027-0.002,0.055-0.003,0.082-0.003c0.599,0,1.105,0.461,1.153,1.066
	l4.575,57.534l28.253-60.383c0.178-0.381,0.549-0.635,0.968-0.664l14.331-1.002c0.027-0.002,0.054-0.003,0.081-0.003
	c0.377,0,0.733,0.184,0.95,0.496c0.233,0.335,0.273,0.767,0.105,1.138l-42.847,94.915c-0.175,0.388-0.55,0.649-0.975,0.679
	l-34.162,2.389C112.04,129.61,112.013,129.611,111.986,129.611"/>
<pattern  id="SVGID_4_" xlink:href="#Unnamed_Pattern_7" patternTransform="matrix(1 0 0 -1 -1205.6401 1290.4561)">
</pattern>
<polygon fill="url(#SVGID_4_)" points="108.077,38.356 141.081,36.048 146.003,97.949 176.112,33.599 190.443,32.597 
	147.595,127.512 113.433,129.901 "/>
<path fill="#1E1E1C" d="M188.995,31.149h0.001 M188.995,31.149l-42.847,94.915l-34.162,2.389l-5.356-91.545l33.004-2.308l4.922,61.9
	l30.109-64.35L188.995,31.149 M188.996,28.833c-0.014,0-0.028,0-0.041,0c-0.048,0.001-0.097,0.003-0.144,0.007l-14.307,1
	c-0.839,0.059-1.58,0.567-1.936,1.329L146.17,87.585l-4.228-53.168c-0.096-1.211-1.109-2.133-2.306-2.133
	c-0.054,0-0.109,0.002-0.164,0.005l-33.004,2.308c-1.266,0.089-2.225,1.179-2.15,2.446l5.356,91.544
	c0.036,0.618,0.318,1.195,0.783,1.604c0.424,0.373,0.968,0.577,1.529,0.577c0.054,0,0.107-0.002,0.162-0.006l34.162-2.389
	c0.85-0.059,1.599-0.581,1.95-1.357l42.818-94.852c0.15-0.307,0.235-0.652,0.235-1.016c0-1.271-1.023-2.302-2.29-2.316H188.996z
	 M188.995,33.465h0.001H188.995z"/>
<path fill="#010202" d="M180.888,129.567c-0.666,0-1.304-0.288-1.745-0.794c-0.477-0.547-0.67-1.287-0.521-1.997l19.542-93.285
	c0.212-1.014,1.072-1.763,2.105-1.836l60.941-4.262c0.054-0.004,0.108-0.005,0.162-0.005c0.666,0,1.303,0.287,1.744,0.792
	c0.477,0.546,0.671,1.284,0.523,1.994l-2.316,11.163c-0.211,1.016-1.071,1.768-2.106,1.84l-27.792,1.943l-5.069,23.649l21.682-1.516
	c0.054-0.004,0.108-0.006,0.162-0.006c0.667,0,1.304,0.288,1.746,0.795c0.477,0.548,0.67,1.287,0.52,1.998l-2.316,11.018
	c-0.213,1.013-1.072,1.762-2.105,1.834l-23.011,1.609l-5.66,26.73l26.466-1.851c0.054-0.003,0.108-0.006,0.162-0.006
	c0.66,0,1.292,0.282,1.733,0.779c0.477,0.538,0.677,1.267,0.542,1.974l-2.171,11.298c-0.198,1.031-1.065,1.8-2.113,1.873
	l-60.942,4.261C180.996,129.565,180.942,129.567,180.888,129.567"/>
<path fill="#FFFFFF" d="M178.861,124.935c-0.333,0-0.652-0.144-0.873-0.397c-0.239-0.274-0.335-0.643-0.261-0.999l19.542-93.286
	c0.106-0.507,0.536-0.882,1.053-0.918l60.941-4.262c0.027-0.002,0.054-0.003,0.081-0.003c0.333,0,0.651,0.144,0.872,0.396
	c0.238,0.273,0.335,0.642,0.262,0.997l-2.316,11.163c-0.105,0.508-0.536,0.884-1.053,0.92l-28.661,2.004l-5.574,26.006l23.217-1.623
	c0.027-0.002,0.054-0.003,0.081-0.003c0.333,0,0.652,0.144,0.873,0.397c0.238,0.274,0.335,0.644,0.26,0.999l-2.316,11.019
	c-0.107,0.506-0.536,0.881-1.053,0.917l-23.882,1.67l-6.16,29.086l27.998-1.957c0.027-0.002,0.054-0.003,0.081-0.003
	c0.33,0,0.646,0.141,0.866,0.39c0.239,0.269,0.339,0.633,0.271,0.987l-2.171,11.298c-0.099,0.516-0.533,0.9-1.056,0.937
	l-60.942,4.261C178.915,124.934,178.888,124.935,178.861,124.935"/>
<pattern  id="SVGID_5_" xlink:href="#Unnamed_Pattern_7" patternTransform="matrix(1 0 0 -1 -1205.6401 1290.4561)">
</pattern>
<polygon fill="url(#SVGID_5_)" points="199.851,31.939 260.793,27.677 258.477,38.841 228.947,40.905 222.867,69.268 247.62,67.537 
	245.304,78.556 220.551,80.287 213.892,111.73 243.422,109.665 241.251,120.963 180.309,125.224 "/>
<path fill="#1E1E1C" d="M259.345,26.23l-2.316,11.163l-29.53,2.064l-6.08,28.363l24.753-1.731l-2.316,11.018l-24.753,1.731
	l-6.659,31.443l29.53-2.065l-2.171,11.298l-60.942,4.261l19.542-93.285L259.345,26.23 M246.173,66.09h0.001 M241.975,108.217h0.001
	 M259.345,23.914c-0.054,0-0.108,0.002-0.162,0.006l-60.942,4.261c-1.033,0.072-1.893,0.822-2.105,1.836l-19.542,93.286
	c-0.149,0.711,0.044,1.45,0.521,1.997c0.441,0.506,1.079,0.794,1.746,0.794c0.054,0,0.108-0.001,0.162-0.005l60.942-4.262
	c1.047-0.073,1.915-0.842,2.113-1.873l2.157-11.225c0.037-0.164,0.056-0.334,0.056-0.51c0-1.275-1.03-2.31-2.304-2.316h-0.012
	c-0.009,0-0.019,0-0.028,0h-0.002c-0.052,0.001-0.104,0.003-0.156,0.007l-26.442,1.849l5.66-26.73l23.011-1.609
	c1.032-0.072,1.892-0.821,2.105-1.834l2.301-10.945c0.043-0.176,0.066-0.36,0.066-0.55c0-1.276-1.03-2.31-2.304-2.316h-0.012h-0.031
	c-0.052,0.001-0.104,0.003-0.155,0.007l-21.658,1.514l5.069-23.649l27.792-1.943c1.035-0.072,1.895-0.824,2.106-1.84l2.316-11.163
	c0.147-0.71-0.046-1.448-0.523-1.994C260.648,24.201,260.011,23.914,259.345,23.914 M259.345,28.546h0.001H259.345z"/>
<path fill="#010202" d="M253.698,124.475c-0.667,0-1.304-0.287-1.746-0.794c-0.477-0.547-0.67-1.287-0.521-1.997l19.542-93.285
	c0.212-1.014,1.072-1.763,2.105-1.836l38.071-2.662c2.478-0.173,4.92-0.261,7.26-0.261c1.919,0,3.817,0.059,5.643,0.176
	c4.231,0.272,7.995,1.173,11.189,2.677c3.331,1.57,6.018,3.931,7.987,7.018c1.97,3.093,2.969,7.225,2.969,12.282
	c0,6.111-1.728,11.948-5.134,17.348c-3.113,4.935-8.07,8.996-14.756,12.093l15.961,40.025c0.274,0.687,0.204,1.464-0.19,2.09
	c-0.393,0.626-1.062,1.027-1.8,1.078l-32.28,2.257c-0.054,0.004-0.109,0.006-0.163,0.006c-0.997,0-1.89-0.641-2.201-1.601
	l-11.007-33.877l-7.395,35.236c-0.213,1.013-1.072,1.763-2.105,1.835l-31.267,2.186
	C253.806,124.473,253.752,124.475,253.698,124.475 M298.309,67.357l3.721-0.26c1.943-0.136,3.564-0.888,4.953-2.298
	c1.58-1.604,2.885-3.547,3.877-5.774c1.025-2.3,1.772-4.778,2.222-7.365c0.457-2.644,0.69-4.938,0.69-6.819
	c0-2.131-0.355-3.917-1.056-5.31c-0.143-0.283-0.524-1.04-2.698-1.04c-0.227,0-0.468,0.009-0.717,0.026l-4.782,0.334L298.309,67.357
	z"/>
<path fill="#FFFFFF" d="M251.672,119.843c-0.333,0-0.652-0.144-0.873-0.397c-0.239-0.274-0.335-0.643-0.261-0.999l19.542-93.285
	c0.106-0.507,0.536-0.882,1.053-0.918l38.071-2.662c2.451-0.171,4.866-0.258,7.179-0.258c1.894,0,3.768,0.058,5.569,0.173
	c4.085,0.264,7.708,1.128,10.77,2.569c3.129,1.475,5.654,3.693,7.504,6.593c1.849,2.903,2.787,6.826,2.787,11.659
	c0,5.889-1.667,11.518-4.956,16.73c-3.143,4.984-8.275,9.054-15.263,12.11l16.372,41.055c0.137,0.344,0.102,0.732-0.095,1.045
	c-0.197,0.313-0.531,0.514-0.9,0.539l-32.28,2.257c-0.027,0.002-0.054,0.003-0.081,0.003c-0.498,0-0.945-0.32-1.101-0.8
	L292.36,77.249l-8.287,39.488c-0.107,0.507-0.536,0.881-1.053,0.917l-31.267,2.186C251.726,119.842,251.698,119.843,251.672,119.843
	 M294.822,65.146l5.262-0.368c2.238-0.157,4.101-1.02,5.697-2.641c1.678-1.703,3.061-3.761,4.11-6.115
	c1.063-2.387,1.839-4.957,2.305-7.638c0.469-2.71,0.707-5.071,0.707-7.018c0-2.313-0.397-4.274-1.179-5.83
	c-0.208-0.414-0.845-1.677-3.733-1.677c-0.254,0-0.522,0.01-0.798,0.029l-5.648,0.395L294.822,65.146z"/>
<pattern  id="SVGID_6_" xlink:href="#Unnamed_Pattern_7" patternTransform="matrix(1 0 0 -1 -2487.05 1290.4561)">
</pattern>
<path fill="url(#SVGID_6_)" d="M343.301,43.766c0,5.695-1.592,11.065-4.777,16.112c-3.185,5.049-8.446,9.084-15.779,12.105
	l16.792,42.107l-32.28,2.257l-12.738-39.206l-1.593,0.111l-8.541,40.694l-31.267,2.186l19.542-93.286l38.071-2.662
	c4.437-0.31,8.635-0.337,12.593-0.085c3.956,0.255,7.405,1.075,10.35,2.461c2.942,1.387,5.283,3.444,7.02,6.168
	C342.433,35.455,343.301,39.134,343.301,43.766 M301.612,67.381c2.508-0.175,4.654-1.169,6.442-2.984
	c1.785-1.812,3.232-3.965,4.343-6.456c1.108-2.489,1.904-5.127,2.388-7.911c0.482-2.784,0.724-5.189,0.724-7.216
	c0-2.509-0.435-4.625-1.303-6.351c-0.869-1.724-2.75-2.486-5.646-2.283l-6.514,0.456l-7.238,33.221L301.612,67.381z"/>
<path fill="#1E1E1C" d="M316.382,22.482c1.881,0,3.713,0.057,5.496,0.171c3.956,0.255,7.405,1.075,10.35,2.461
	c2.942,1.387,5.283,3.444,7.02,6.168c1.737,2.726,2.606,6.404,2.606,11.036c0,5.695-1.593,11.065-4.777,16.112
	c-3.185,5.049-8.446,9.084-15.779,12.105l16.792,42.107l-32.28,2.257l-12.738-39.206l-1.593,0.111l-8.541,40.694l-31.267,2.186
	L271.214,25.4l38.071-2.662C311.722,22.567,314.088,22.482,316.382,22.482 M293.361,66.409l6.803-0.476
	c2.508-0.175,4.654-1.169,6.442-2.984c1.785-1.812,3.232-3.965,4.343-6.456c1.108-2.489,1.904-5.127,2.388-7.911
	c0.482-2.784,0.724-5.189,0.724-7.216c0-2.509-0.435-4.625-1.303-6.351c-0.778-1.543-2.367-2.315-4.767-2.315
	c-0.282,0-0.574,0.011-0.878,0.032l-6.514,0.456L293.361,66.409 M316.382,20.166c-2.34,0-4.782,0.088-7.259,0.261l-38.071,2.662
	c-1.033,0.072-1.893,0.822-2.105,1.835l-19.542,93.286c-0.149,0.71,0.044,1.45,0.521,1.997c0.441,0.507,1.079,0.794,1.745,0.794
	c0.054,0,0.108-0.002,0.162-0.006l31.267-2.186c1.033-0.072,1.893-0.821,2.105-1.835l7.395-35.236l11.007,33.877
	c0.312,0.96,1.205,1.601,2.201,1.601c0.054,0,0.108-0.002,0.163-0.006l32.28-2.257c0.737-0.052,1.406-0.452,1.8-1.078
	c0.393-0.626,0.464-1.403,0.19-2.09L324.28,71.759c6.685-3.096,11.643-7.158,14.756-12.093c3.406-5.4,5.134-11.236,5.134-17.348
	c0-5.057-0.999-9.19-2.968-12.281c-1.97-3.088-4.656-5.449-7.986-7.019c-3.195-1.504-6.959-2.404-11.189-2.677
	C320.199,20.225,318.301,20.166,316.382,20.166 M302.492,35.378l4.782-0.334c0.249-0.017,0.49-0.026,0.717-0.026
	c2.174,0,2.555,0.756,2.699,1.042c0.699,1.391,1.055,3.178,1.055,5.308c0,1.881-0.232,4.175-0.69,6.821
	c-0.449,2.585-1.197,5.063-2.222,7.364c-0.992,2.226-2.297,4.169-3.877,5.773c-1.389,1.411-3.009,2.163-4.953,2.299l-3.721,0.26
	L302.492,35.378z"/>
<path fill="#010202" d="M345.327,118.068c-0.666,0-1.304-0.288-1.745-0.794c-0.477-0.547-0.67-1.287-0.521-1.997l19.542-93.286
	c0.212-1.014,1.072-1.763,2.105-1.836l31.412-2.196c0.054-0.004,0.108-0.006,0.162-0.006c0.667,0,1.305,0.288,1.747,0.795
	c0.477,0.548,0.669,1.288,0.519,1.999L382.1,98.7l26.324-1.841c0.054-0.003,0.108-0.006,0.162-0.006
	c0.663,0,1.297,0.284,1.738,0.786c0.477,0.542,0.674,1.276,0.533,1.983l-2.461,12.331c-0.204,1.024-1.069,1.784-2.11,1.857
	l-60.797,4.251C345.435,118.066,345.381,118.068,345.327,118.068"/>
<path fill="#FFFFFF" d="M343.301,113.436c-0.333,0-0.652-0.144-0.873-0.397c-0.239-0.274-0.335-0.643-0.261-0.999l19.542-93.286
	c0.106-0.507,0.536-0.882,1.053-0.918l31.412-2.196c0.027-0.002,0.054-0.003,0.081-0.003c0.333,0,0.653,0.144,0.873,0.397
	c0.239,0.274,0.335,0.644,0.26,1l-16.764,79.453l27.855-1.948c0.027-0.002,0.054-0.003,0.081-0.003c0.331,0,0.648,0.142,0.869,0.393
	c0.239,0.271,0.337,0.638,0.267,0.992l-2.461,12.331c-0.102,0.512-0.534,0.892-1.055,0.928l-60.797,4.251
	C343.355,113.435,343.328,113.436,343.301,113.436"/>
<pattern  id="SVGID_7_" xlink:href="#Unnamed_Pattern_7" patternTransform="matrix(1 0 0 -1 -1205.6401 1290.4561)">
</pattern>
<polygon fill="url(#SVGID_7_)" points="364.29,20.44 395.702,18.243 378.621,99.198 408.006,97.143 405.546,109.474 
	344.749,113.726 "/>
<path fill="#1E1E1C" d="M394.255,16.796L377.174,97.75l29.385-2.055l-2.461,12.331l-60.797,4.252l19.542-93.286L394.255,16.796
	 M406.559,95.695h0.001 M394.255,14.48c-0.054,0-0.107,0.002-0.162,0.006l-31.412,2.196c-1.033,0.072-1.893,0.822-2.105,1.836
	l-19.542,93.286c-0.149,0.71,0.044,1.45,0.521,1.996c0.441,0.507,1.079,0.794,1.745,0.794c0.054,0,0.108-0.002,0.162-0.006
	l60.797-4.251c1.041-0.073,1.906-0.833,2.11-1.857l2.446-12.258c0.039-0.169,0.06-0.345,0.06-0.526c0-1.275-1.03-2.31-2.304-2.316
	h-0.012c-0.01,0-0.02,0-0.03,0c-0.052,0.001-0.104,0.003-0.155,0.007l-26.3,1.839l16.447-77.951c0.15-0.711-0.042-1.451-0.519-1.999
	C395.56,14.768,394.922,14.48,394.255,14.48 M394.255,19.112h0.001H394.255z"/>
<path fill="#010202" d="M408.294,113.665c-0.754,0-1.464-0.368-1.899-0.991c-0.466-0.668-0.547-1.532-0.212-2.275l42.703-94.905
	c0.35-0.778,1.1-1.301,1.951-1.36l34.307-2.399c0.054-0.004,0.109-0.006,0.164-0.006c1.171,0,2.171,0.882,2.3,2.064l9.988,91.221
	c0.069,0.626-0.121,1.254-0.525,1.737c-0.404,0.483-0.988,0.782-1.616,0.826l-33.873,2.368c-0.055,0.004-0.109,0.006-0.164,0.006
	c-1.189,0-2.198-0.909-2.305-2.112l-1.826-20.61l-23.108,1.616l-9.718,22.443c-0.344,0.794-1.101,1.33-1.964,1.39l-14.041,0.982
	C408.402,113.663,408.348,113.665,408.294,113.665 M441.037,73.155l14.836-1.038l-2.354-27.666L441.037,73.155z"/>
<path fill="#FFFFFF" d="M406.268,109.033c-0.377,0-0.732-0.184-0.95-0.496c-0.233-0.334-0.273-0.766-0.106-1.138l42.703-94.905
	c0.175-0.389,0.549-0.65,0.975-0.68l34.307-2.399c0.027-0.002,0.055-0.003,0.082-0.003c0.586,0,1.085,0.441,1.15,1.032l9.988,91.221
	c0.034,0.313-0.06,0.627-0.263,0.869c-0.202,0.242-0.494,0.391-0.808,0.413l-33.873,2.369c-0.027,0.002-0.055,0.003-0.082,0.003
	c-0.595,0-1.099-0.455-1.152-1.056l-1.926-21.742l-24.944,1.744l-9.997,23.089c-0.172,0.397-0.55,0.665-0.982,0.695l-14.041,0.982
	C406.322,109.032,406.295,109.033,406.268,109.033 M437.187,70.969l17.913-1.253l-2.841-33.403L437.187,70.969z"/>
<pattern  id="SVGID_8_" xlink:href="#Unnamed_Pattern_7" patternTransform="matrix(1 0 0 -1 -1205.6401 1290.4561)">
</pattern>
<path fill="url(#SVGID_8_)" d="M494.714,103.239l-33.873,2.368l-2.026-22.874l-26.78,1.872l-10.277,23.735l-14.042,0.982
	l42.703-94.905l34.307-2.399L494.714,103.239z M436.812,73.705l20.989-1.468l-3.33-39.141L436.812,73.705z"/>
<path fill="#1E1E1C" d="M483.277,10.571l9.988,91.221l-33.873,2.369l-2.026-22.874l-26.78,1.873l-10.277,23.735l-14.041,0.982
	l42.703-94.905L483.277,10.571 M435.364,72.257l20.989-1.468l-3.33-39.14L435.364,72.257 M483.28,8.255
	c-0.054,0-0.109,0.002-0.164,0.006l-34.307,2.399c-0.851,0.06-1.601,0.582-1.951,1.36l-42.703,94.905
	c-0.334,0.743-0.254,1.606,0.212,2.275c0.435,0.624,1.146,0.991,1.899,0.991c0.054,0,0.108-0.002,0.162-0.006l14.041-0.982
	c0.863-0.06,1.62-0.596,1.964-1.39l9.718-22.443l23.108-1.616l1.826,20.61c0.106,1.203,1.115,2.112,2.305,2.112
	c0.054,0,0.109-0.002,0.164-0.006l33.873-2.368c0.628-0.044,1.212-0.342,1.616-0.826c0.404-0.483,0.594-1.111,0.525-1.737
	l-9.988-91.221C485.451,9.137,484.451,8.255,483.28,8.255 M439.01,69.681l12.483-28.704l2.353,27.666L439.01,69.681z"/>
<path fill="#010202" d="M502.239,107.096c-0.666,0-1.304-0.287-1.746-0.794c-0.477-0.547-0.67-1.287-0.521-1.997l19.542-93.285
	c0.212-1.014,1.072-1.763,2.105-1.836l33.438-2.338c3.311-0.232,6.496-0.349,9.467-0.349c2.03,0,4.009,0.055,5.883,0.163
	c4.803,0.278,9.029,1.24,12.558,2.862c3.702,1.702,6.629,4.341,8.699,7.845c2.039,3.458,3.073,8.147,3.073,13.942
	c0,5.253-0.846,10.362-2.516,15.183c-1.698,4.904-4.46,9.321-8.21,13.129c-3.728,3.782-8.587,6.931-14.442,9.36
	c-5.798,2.406-12.909,3.918-21.136,4.493l-6.508,0.455l-6.153,29.144c-0.214,1.012-1.073,1.76-2.105,1.832l-31.267,2.186
	C502.347,107.094,502.293,107.096,502.239,107.096 M544.949,59.809l3.594-0.251c2.226-0.156,4.072-1.215,5.642-3.239
	c1.823-2.35,3.363-5.226,4.577-8.55c1.244-3.403,2.154-6.972,2.708-10.608c0.559-3.672,0.843-6.887,0.843-9.555
	c0-2.227-0.355-4.062-1.056-5.454c-0.143-0.284-0.524-1.04-2.698-1.04c-0.226,0-0.468,0.009-0.717,0.026l-4.771,0.334
	L544.949,59.809z"/>
<path fill="#FFFFFF" d="M500.213,102.464c-0.333,0-0.652-0.144-0.873-0.397c-0.239-0.274-0.335-0.643-0.261-0.999l19.542-93.285
	c0.106-0.507,0.536-0.882,1.053-0.918l33.438-2.338c3.284-0.23,6.442-0.346,9.386-0.346c2.008,0,3.964,0.054,5.816,0.161
	c4.659,0.269,8.744,1.197,12.142,2.758c3.483,1.601,6.237,4.085,8.186,7.382c1.932,3.276,2.911,7.768,2.911,13.352
	c0,5.124-0.825,10.105-2.452,14.804c-1.641,4.74-4.313,9.011-7.941,12.696c-3.618,3.671-8.349,6.734-14.061,9.103
	c-5.682,2.358-12.672,3.841-20.773,4.408l-7.38,0.516l-6.333,29.999c-0.107,0.506-0.536,0.88-1.052,0.916l-31.267,2.186
	C500.267,102.463,500.24,102.464,500.213,102.464 M541.472,57.597l5.126-0.358c2.574-0.18,4.692-1.385,6.476-3.685
	c1.896-2.445,3.494-5.427,4.749-8.862c1.27-3.476,2.201-7.12,2.765-10.831c0.568-3.73,0.855-7.004,0.855-9.73
	c0-2.409-0.397-4.419-1.179-5.974c-0.209-0.415-0.845-1.678-3.733-1.678c-0.253,0-0.522,0.01-0.797,0.029l-5.643,0.395
	L541.472,57.597z"/>
<pattern  id="SVGID_9_" xlink:href="#Unnamed_Pattern_7" patternTransform="matrix(1 0 0 -1 -1205.6401 1290.4561)">
</pattern>
<path fill="url(#SVGID_9_)" d="M539.441,69.713l-6.514,30.854l-31.267,2.186l19.542-93.286l33.438-2.338
	c5.501-0.385,10.517-0.446,15.055-0.184c4.535,0.262,8.443,1.147,11.725,2.654c3.279,1.508,5.837,3.815,7.672,6.918
	c1.832,3.106,2.75,7.36,2.75,12.763c0,5.019-0.796,9.827-2.388,14.426c-1.592,4.599-4.151,8.686-7.672,12.262
	c-3.524,3.576-8.084,6.525-13.679,8.846c-5.598,2.323-12.401,3.762-20.41,4.322L539.441,69.713z M548.126,59.841
	c2.895-0.202,5.331-1.578,7.31-4.13c1.977-2.549,3.619-5.609,4.922-9.174c1.303-3.565,2.243-7.25,2.822-11.054
	c0.579-3.804,0.869-7.104,0.869-9.904c0-2.606-0.434-4.769-1.303-6.495c-0.869-1.724-2.75-2.486-5.645-2.283l-6.514,0.455
	l-9.12,43.051L548.126,59.841z"/>
<path fill="#1E1E1C" d="M562.498,5.339c1.996,0,3.912,0.053,5.75,0.159c4.535,0.262,8.443,1.147,11.725,2.654
	c3.28,1.508,5.837,3.815,7.672,6.919c1.832,3.106,2.75,7.36,2.75,12.763c0,5.019-0.796,9.827-2.388,14.425
	s-4.151,8.686-7.672,12.262c-3.524,3.576-8.084,6.525-13.679,8.846c-5.598,2.323-12.401,3.762-20.41,4.322l-8.251,0.577
	l-6.514,30.854l-31.267,2.186L519.755,8.02l33.438-2.338C556.465,5.453,559.567,5.339,562.498,5.339 M540.02,58.86l6.658-0.466
	c2.895-0.202,5.331-1.578,7.31-4.13c1.977-2.549,3.619-5.609,4.922-9.175c1.303-3.565,2.243-7.25,2.822-11.054
	c0.579-3.804,0.869-7.104,0.869-9.904c0-2.606-0.434-4.769-1.303-6.495c-0.778-1.543-2.366-2.315-4.767-2.315
	c-0.282,0-0.574,0.011-0.879,0.032l-6.514,0.455L540.02,58.86 M562.498,3.022v2.316V3.022c-2.972,0-6.157,0.118-9.467,0.349
	L519.593,5.71c-1.033,0.072-1.893,0.822-2.105,1.835l-19.542,93.286c-0.149,0.71,0.044,1.45,0.521,1.997
	c0.441,0.506,1.079,0.794,1.745,0.794c0.054,0,0.108-0.002,0.162-0.006l31.267-2.186c1.032-0.072,1.891-0.82,2.105-1.832
	l6.153-29.144l6.508-0.455c8.226-0.575,15.338-2.087,21.137-4.493c5.855-2.428,10.714-5.577,14.441-9.36
	c3.751-3.808,6.513-8.226,8.211-13.129c1.67-4.821,2.516-9.93,2.516-15.183c0-5.794-1.034-10.484-3.072-13.94
	c-2.072-3.505-4.998-6.145-8.699-7.846c-3.531-1.622-7.756-2.585-12.559-2.862C566.507,3.078,564.528,3.022,562.498,3.022
	 M551.044,17.997l4.771-0.334c0.25-0.017,0.491-0.026,0.717-0.026c2.174,0,2.555,0.756,2.698,1.041
	c0.7,1.391,1.055,3.226,1.055,5.453c0,2.668-0.284,5.883-0.842,9.556c-0.553,3.636-1.465,7.204-2.708,10.608
	c-1.214,3.323-2.754,6.2-4.577,8.549c-1.569,2.024-3.415,3.084-5.642,3.239l-3.594,0.251L551.044,17.997z"/>
</svg>
