<?xml version="1.0" encoding="utf-8"?>
<!-- Generator: Adobe Illustrator 17.0.0, SVG Export Plug-In . SVG Version: 6.00 Build 0)  -->
<!DOCTYPE svg PUBLIC "-//W3C//DTD SVG 1.1//EN" "http://www.w3.org/Graphics/SVG/1.1/DTD/svg11.dtd">
<svg version="1.1" id="Calque_1" xmlns="http://www.w3.org/2000/svg" xmlns:xlink="http://www.w3.org/1999/xlink" x="0px" y="0px"
	 width="437.631px" height="841.89px" viewBox="0 0 437.631 841.89" enable-background="new 0 0 437.631 841.89"
	 xml:space="preserve">
<path fill="#010202" d="M388.1,431.758c-0.331-4.871-0.783-11.382-7.157-12.094c-6.487-0.72-6.335,5.759-7.819,10.074
	c-0.849,2.473-1.195,6.281-4.669,5.479c-3.353-0.771-2.301-4.642-2.111-7.114c1.293-16.631,1.285-33.239-0.012-49.866
	c-0.3-3.8,0.308-7.675,2.508-10.786c12.254-17.34,7.247-36.533,6.051-55.282c-0.14-2.212-1.176-5.124-2.815-6.347
	c-7.145-5.335-8.056-13.056-8.843-20.879c-1.036-10.245-3.836-20.034-7.406-29.621c-2.036-5.459-2.075-10.541,1.328-15.541
	c5.28-7.765,4.84-15.907,1.561-24.353c-5.428-13.979-11.429-27.674-18.481-40.917c-2.558-4.801-4.895-9.727-7.184-14.664
	c-1.137-2.457-2.562-5.467,0.444-7.317c3.065-1.881,5.136,1.086,6.799,2.979c3.131,3.563,5.958,7.418,8.637,11.339
	c3.839,5.615,7.328,11.471,11.176,17.079c2.017,2.932,4.895,5.004,8.695,4.026c4.322-1.11,5.856-4.79,5.763-8.66
	c-0.44-18.134-7.877-34.029-19.777-46.754c-5.3-5.669-10.813-10.798-14.641-17.647c-8.212-14.684-17.826-28.258-32.296-37.53
	c-3.353-2.149-7.301-4.579-11.246-1.125c-3.863,3.384-0.985,6.744,0.483,10.105c0.892,2.037,3.267,4.381,0.701,6.409
	c-2.317,1.83-4.708,0.047-6.191-1.776c-7.838-9.641-17.768-16.74-27.818-23.8c-5.272-3.699-5.997-6.67,1.639-9.322
	c7.04-2.445,6.775-7.998,1.772-12.772c-9.785-9.345-36.696-11.304-46.069-1.783c-11.931,12.122-29.072,9.31-41.466,18.882
	c-1.293-3.123-0.148-4.011,0.705-5.027c2.504-2.991,7.223-5.592,4.209-10.222c-3.216-4.938-8.092-2.516-11.939-0.588
	c-18.691,9.357-35.797,20.996-49.905,36.595c-2.889,3.193-6.592,6.939-4.482,11.721c2.523,5.72,6.452-2.301,10.37,0.008
	c-1.577,2.188-2.656,3.902-3.948,5.44c-21.51,25.525-37.728,54.048-48.791,85.546c-2.944,8.38-5.58,16.833-6.612,25.641
	c-0.494,4.217-1.596,10.116,3.754,11.464c5.818,1.464,6.647-4.568,7.912-8.598c2.434-7.761,6.655-14.513,11.834-21.097
	c-9.392,40.688-22.97,80.367-26.884,122.168c-3.672-2.917-2.87-5.693-2.644-8.333c0.822-9.482,1.959-18.94,2.586-28.433
	c0.269-4.007,0.327-9.291-4.797-9.93c-5.233-0.646-5.681,4.848-7.005,8.532c-0.802,2.227-1.359,4.579-1.709,6.923
	c-2.702,18.161-5.335,36.334-7.971,54.507c-0.876,6.032-1.694,12.067-2.539,18.103c-0.97-0.074-1.939-0.148-2.905-0.226
	c4.112-13.714-4.178-26.366-2.099-39.967c0.452-2.955-0.004-6.756-3.528-7.663c-3.859-0.989-5.304,2.624-6.184,5.455
	c-2.831,9.104-6.32,18.605-4.011,27.966c2.808,11.366,1.542,22.18-0.21,33.297c-1.16,7.383-2.578,15.377,2.391,21.736
	c8.559,10.958,3.17,21.67,1.449,32.569c-1.495-2.255-1.702-4.614-2.317-6.861c-0.876-3.205-1.211-7.807-5.21-7.881
	c-4.879-0.093-5.078,4.832-5.529,8.423c-3.271,25.976-0.027,51.555,5.28,76.944c0.829,3.96,2.737,8.668,7.62,8.275
	c5.623-0.452,4.739-5.821,4.828-9.708c0.218-9.524-0.144-19.068,0.276-28.581c0.167-3.832-0.144-10.054,4.33-10.389
	c10.175-0.763,8.539-8.084,9.256-14.022c0.993-8.239-0.888-16.763,3.395-24.882c1.709,19.158,1.768,38.316,1.616,57.474
	c-0.016,1.9-0.927,4.093-2.099,5.638c-6.098,8.033-6.199,16.907-4.533,26.28c1.009,5.682,3.022,11.892,1.717,17.153
	c-5.311,21.378,2.181,40.995,6.6,61.138c1.316,5.993,4.747,11.752,3.193,21.113c-4.992-6.951-6.39-12.659-7.581-18.407
	c-1.036-5.023-1.635-10.467-5.167-14.228c-6.285-6.694-7.772-14.875-9.018-23.344c-0.545-3.695-1.199-7.398-2.2-10.985
	c-0.903-3.232-1.97-7.332-6.226-6.873c-4.782,0.518-5.179,4.965-5.105,8.722c0.319,15.735,2.765,31.264,7.504,46.19
	c7.64,24.061,21.65,45.672,27.744,70.391c0.241,0.981,0.713,1.915,1.168,2.827c2.079,4.178,3.691,10.42,9.462,8.683
	c5.265-1.581,2.889-7.441,2.547-11.701c-0.097-1.211-0.012-2.434-0.012-3.649c2.753,2.706,4.007,5.732,5.257,8.761
	c7.383,17.897,12.854,36.681,24.427,52.626c13.013,17.928,25.945,35.914,39.161,53.689c1.939,2.609,5.031,5.58,7.944,6.016
	c9.404,1.401,17.013,6.343,25.182,10.463c7.967,4.019,12.651,1.289,13.578-7.554c0.448-4.303,2.473-5.405,5.88-5.035
	c19.477,2.107,37.927-0.915,55.251-10.358c3.59-1.955,6.25-1.184,7.578,3.446c3.345,11.655,7.25,13.142,17.69,6.709
	c17.087-10.529,30.976-24.376,41.533-41.462c1.585-2.562,2.843-5.483,3.532-8.411c1.063-4.529,0.607-9.076-3.968-11.639
	c-4.182-2.344-8.088-0.483-11.172,2.403c-2.699,2.527-4.653,5.829-7.208,8.535c-2.033,2.153-4.474,5.432-7.69,3.127
	c-3.668-2.628-0.436-5.533,1.281-7.764c5.191-6.737,10.946-13.056,15.887-19.964c6.772-9.47,12.924-19.162,26.031-20.996
	c3.987-0.557,6.663-4.497,9.081-7.854c8.345-11.608,16.775-23.184,23.274-35.965c5.241-10.303,10.525-20.669,11.697-32.451
	c0.436-4.377,1.413-9.303-3.987-11.444c-5.658-2.243-9.166,1.628-11.728,5.681c-4.716,7.472-8.738,15.381-13.376,22.904
	c-1.865,3.029-4.194,7.644-8.477,5.471c-4.474-2.266-1.713-6.919-0.308-9.988c7.297-15.918,10.891-32.904,15.14-49.718
	c0.993-3.929,2.383-7.819,4.096-11.487c1.417-3.037,3.625-5.171,7.06-1.756c7.955,7.909,11.102,1.628,13.59-4.961
	c3.543-9.38,3.555-19.318,3.991-29.193c0.6-13.559-0.537-27.577,4.556-40.345C389.202,463.509,389.182,447.743,388.1,431.758
	 M83.735,649.312c-5.054-6.113-8.886-13.134-7.215-20.922c2.204-10.303-0.693-19.357-3.555-28.834
	c-2.769-9.159-14.174-24.08-4.501-28.952c5.23-2.632,5.144,6.998,6.25,10.631c2.675,8.777,4.774,17.733,7.519,26.483
	c2.297,7.321,3.656,14.345,0.179,21.775C79.296,636.143,84.016,642.536,83.735,649.312 M116.814,179.051
	c7.819-9.887,11.709-22.277,21.109-31.362c7.083-6.846,12.11-15.743,21.346-21.596c4.338,3.01,0.385,6.503-0.518,11.604
	c-2.749,15.517-22.086,34.36-24.777,36.992c-4.782,4.677-6.433,11.082-9.1,16.939c-2.048,4.49-2.566,10.183-8.594,11.806
	c-3.061-1.118-4.147-3.283-4.455-7.34C111.398,190.464,112.792,184.132,116.814,179.051"/>
<path fill="#010202" d="M282.167,2.7c7.335-0.017,12.835,3.946,18.058,8.414c4.094,3.501,7.562,6.184,12.903,0.972
	c4.258-4.155,9.814-2.063,14.019,1.23c12.955,10.145,28.183,18.55,29.424,37.965c0.244,3.809,3.712,6.428,6.43,8.947
	c13.885,12.864,24.145,28.423,33.398,44.717c1.655,2.914,2.977,6.152,3.727,9.408c0.921,3.999-0.9,7.321-4.271,9.623
	c-3.712,2.535-7.212,1.567-10.159-1.287c-2.915-2.822-5.578-5.916-8.229-8.997c-2.516-2.923-5.078-5.613-9.439-4.758
	c-8.663,1.699-14.216-2.951-18.888-9.289c-9.271-12.577-18.227-25.394-27.795-37.739c-12.42-16.027-28.497-28.015-45.014-39.477
	c-4.296-2.982-7.812-7.028-5.573-12.932C272.693,4.397,276.94,2.583,282.167,2.7"/>
<path fill="#010202" d="M333.576,757.55c-1.593-0.245-1.943-0.387-2.262-0.335c-4.871,0.793-9.401,7.757-14.596,1.591
	c-5.114-6.069-2.23-12.753,1.453-17.933c13.621-19.162,24.488-39.938,36.363-60.124c1.025-1.742,2.378-3.311,3.7-4.856
	c3.006-3.513,6.55-6.486,11.443-4.607c5.24,2.012,6.317,7.064,6.095,11.857c-0.316,6.839-3.045,13.141-5.695,19.44
	c-2.142,5.091-8.636,11.95,5.268,10.86c7.356-0.577,9.282,6.953,8.011,13.685c-1.759,9.314-6.307,18.07-13.447,23.466
	c-11.785,8.907-18.216,21.674-27.308,32.467c-4.153,4.93-8.049,10.188-12.813,14.459c-4.702,4.217-10.879,7.06-16.463,1.852
	c-5.34-4.981-2.612-10.81,1.01-15.605c4.496-5.95,9.607-11.431,14.299-17.238C330.666,764.016,333.443,761.776,333.576,757.55"/>
<path fill="#010202" d="M66.518,733.391c-6.354-11.548-12.136-21.912-17.752-32.365c-1.438-2.676-2.598-5.564-3.435-8.484
	c-0.926-3.229-2.215-7.451,1.235-9.336c4.418-2.415,6.667,2.017,8.639,4.966c10.389,15.524,20.621,31.154,30.834,46.795
	c1.479,2.266,3.515,4.733,3.669,7.208c1.132,18.289,14.586,29.172,24.536,42.252c3.621,4.76,10.683,10.542,3.978,16.614
	c-6.522,5.906-13.19-0.106-17.736-4.684c-14.131-14.231-27.159-29.5-38.477-46.11c-2.259-3.316-3.887-7.161-5.239-10.964
	c-0.99-2.783-1.998-6.316,1.083-8.437C60.792,728.819,62.34,733.095,66.518,733.391"/>
<path fill="#010202" d="M435.037,305.985c-1.199,4.879-1.908,11.144-8.041,11.643c-6.328,0.518-7.854-5.487-9.139-10.397
	c-2.628-10.066-4.517-19.672-13.878-27.141c-7.523-6-5.821-17.612-8.294-26.693c-3.91-14.357-9.349-28.367-10.685-41.957
	c0.144-7.321,0.226-13.862,7.356-15.381c7.722-1.647,12.566,3.676,14.092,10.264c2.239,9.645,7.784,16.109,15.342,21.829
	c6.686,5.058,10.845,12.106,12.235,20.509C437.171,267.715,439.768,286.803,435.037,305.985"/>
<path fill="#010202" d="M432.713,579.276c-2.811,33.056-10.806,61.092-28.044,88.073c-3.434,5.381-7.289,11.814-15.256,8.453
	c-7.983-3.368-8.863-10.723-7.254-18.153c1.569-7.274,3.703-14.466,6.113-21.51c2.025-5.911,2.846-11.592,1.787-17.896
	c-1.262-7.542,1.534-14.372,7.866-18.722c8.01-5.506,11.094-13.088,12.375-22.277c1.192-8.547,1.468-20.326,13.306-19.29
	C435.212,558.969,433.421,570.978,432.713,579.276"/>
<path fill="#010202" d="M416.561,429.882c-0.818,4.525-1.651,10.498-7.8,10.385c-6.036-0.109-6.838-5.942-7.519-10.564
	c-0.584-3.983,0.117-8.134-0.238-12.172c-0.28-3.189,2.562-9.17-5.767-6.125c-4.49,1.639-6.23-3.512-6.67-7.165
	c-0.685-5.716-0.841-11.538-0.693-17.301c0.444-17.371-0.323-34.675-1.511-52.003c-0.401-5.818-0.121-13.563,8.045-14.345
	c7.57-0.724,8.987,6.308,10.093,11.892c1.861,9.4,7.78,27.23,9.762,38.873c1.667,9.809,2.605,17.079,2.605,25.926
	C416.93,408.157,418.515,419.08,416.561,429.882"/>
<path fill="#010202" d="M40.781,228.563c2.397-14.441,3.229-29.37,12.348-42.353c5.722-8.148,4.813-19.034,8.914-28.041
	c2.684-5.895,3.922-16.613,11.134-14.484c7.21,2.128,3.096,11.878,1.308,18.101c-6.652,23.137-13.68,46.167-20.653,69.211
	c-1.259,4.161-2.317,9.841-7.938,8.872C40.451,238.931,41.46,233.082,40.781,228.563"/>
<path fill="#010202" d="M221.799,823.844c-2.55-0.645-5.504-0.512-6.968-1.924c-4.885-4.714-10.688-6.603-17.13-7.897
	c-3.668-0.736-6.941-3.328-6.566-7.883c0.377-4.58,3.989-6.581,7.797-6.557c10.597,0.068,20.827-2.191,31.211-3.633
	c6.515-0.904,12.031,1.915,13.762,9.209c1.805,7.6-1.428,12.605-8.469,15.088C230.994,821.814,226.305,822.682,221.799,823.844"/>
<path fill="#010202" d="M417.438,493.407c-0.66,13.253-4.422,25.215-9.204,36.879c-1.602,3.906-4.274,7.359-9.204,6.412
	c-5.149-0.989-5.842-5.395-5.559-9.556c0.802-11.832,1.428-23.719,3.186-35.426c1.006-6.699,1.967-15.762,11.933-14.69
	C418.552,478.096,416.488,487.152,417.438,493.407"/>
<path fill="#010202" d="M123.899,53.161c-5.283,9.353-11.981,19.158-20.337,27.476c-4.79,4.767-9.746,9.248-13.869,14.673
	c-2.245,2.954-4.501,8.323-9.356,5.269c-4.776-3.005-2.491-8.213-0.449-11.924c7.717-14.026,16.835-27.014,30.147-36.46
	c2.481-1.76,4.865-3.818,7.611-5.008C121.711,45.428,124.213,47.507,123.899,53.161"/>
<path fill="#010202" d="M0,343.435c1.617-14.403,2.586-27.977,6.892-40.951c1.255-3.781,2.837-8.786,7.75-8.034
	c5.393,0.825,4.57,6.269,4.045,10.054c-2.139,15.425-5.914,30.606-6.585,46.266c-0.126,2.939-1.595,6.253-5.481,6.231
	c-3.282-0.019-4.483-2.812-5.172-5.471C0.689,348.601,0.365,345.56,0,343.435"/>
<path fill="#010202" d="M27.319,638.175c0.118,5.3,0.436,8.782-3.109,10.026c-3.549,1.246-5.997-1.576-7.272-4.17
	c-6.2-12.618-9.639-25.97-9.157-40.137c0.092-2.71,0.641-5.733,3.899-6.373c3.371-0.662,5.012,2.048,5.749,4.622
	C21.055,614.81,24.426,627.547,27.319,638.175"/>
<path fill="#010202" d="M213.233,0c3.865,0.007,7.77,0.317,9.203,4.663c1.542,4.679-1.137,7.89-4.877,10.035
	c-6.866,3.939-14.768,4.666-22.281,6.543c-2.391,0.597-4.839-0.191-5.864-2.839c-1.35-3.487-0.464-6.797,1.872-9.47
	C197.063,2.322,204.965,0.647,213.233,0"/>
<path fill="#010202" d="M290.568,841.897c-5.339-0.505-8.402-4.067-8.412-9.901c-0.01-6.025,9.867-13.952,16.762-13.575
	c5.734,0.313,8.245,4.089,8.466,9.391C307.632,833.76,297.945,842.088,290.568,841.897"/>
<path fill="#010202" d="M13.999,512.112c-0.079,4.147-0.492,7.479-3.821,8.572c-3.942,1.295-5.375-2.181-6.359-4.952
	c-3.086-8.693-3.557-17.806-3.406-26.924c0.044-2.656,0.796-5.791,4.194-6.058c3.486-0.273,4.424,2.935,4.951,5.437
	C11.296,496.436,12.662,504.764,13.999,512.112"/>
<g>
	<defs>
		<path id="SVGID_1_" d="M416.833,575.935c-2.477,9.785-3.068,20.489-12.663,26.79c-6.912,4.54-8.808,10.798-7.407,17.643
			c0.37,4.595,0.199,8.43,1.079,12.001c1.18,4.774,5.342,6.857,9.708,7.986c3.492,0.904,4.949-1.963,5.697-4.548
			c5.537-19.182,12.195-38.145,12.869-58.378c0.14-4.213,1.149-10.517-4.166-11.067c-0.199-0.02-0.389-0.03-0.57-0.03
			C416.906,566.333,417.727,572.402,416.833,575.935 M228.908,544.118c-3.551,9.93-6.896,19.929-10.439,29.859
			c-7.695,21.564-10.588,23.792-33.788,24.36c-19.387,0.479-38.764,1.036-57.953,4.038c-12.554,1.959-21.425,10.763-21.911,23.188
			c-1.172,29.983,0.662,59.838,6.199,89.385c1.476,7.878,6.519,11.627,14.513,11.324c9.139-0.343,15.136-5.506,19.267-13.111
			c3.629-6.671,5.517-13.944,5.759-21.514c0.324-10.167,5.518-14.672,15.487-14.575c13.936,0.132,27.876,0.031,47.821,0.031
			c4.801-0.487,10.545-0.436,16.85-0.385c9.829,0.08,21.024,0.16,32.14-1.8c10.07-1.776,17.729-6.113,21.927-15.976
			c7.585-17.83,15.24-35.641,23.422-53.203c3.517-7.551,2.508-11.366-4.999-16.254c-23.263-15.143-49.352-26.373-68.245-47.79
			c-1.238-1.404-2.2-1.95-2.968-1.951C230.368,539.744,229.606,542.169,228.908,544.118 M394.735,329.185
			c-2.741,0.81-2.149,4.065-1.986,6.289c1.441,19.695,2.703,39.383,1.62,59.153c-0.093,1.729-0.604,5.043,2.352,4.505
			c11.561-2.098,9.645,6.565,10.19,12.71c0.549,6.211,0.12,12.507,0.12,18.769c4.934-5.888,5.019-5.892,4.879-12.075
			c-0.643-28.835-2.395-57.509-13.243-84.743c-0.685-1.717-0.487-4.788-2.827-4.789C395.522,329.003,395.156,329.06,394.735,329.185
			 M416.666,274.417c-1.838,0.946-6.254,2.383-3.909,4.478c9.322,8.341,6.935,20.961,14.715,31.198
			c1.437-9.42,3.065-18.819,4.159-28.282c0.245-2.126-0.876-4.828-2.215-6.639c-1.709-2.314-3.612-3.136-5.584-3.136
			C421.472,272.037,419.014,273.212,416.666,274.417 M391.538,202.831c-0.646,0.175-2.22,5.342-1.098,11.039
			c2.55,12.978,10.101,33.126,10.525,34.73c1.776,6.702,0.748,15.922,6.725,19.217c5.413,2.983,10.471-4.295,15.066-8.076
			c1.53-1.258,2.955-2.89,3.839-4.646c3.1-6.125-1.176-14.193-4.972-18.66c-3.992-4.692-11.998-10.357-16.939-21.21
			c-2.808-6.168-2.41-8.434-5.121-12.433c-0.994-1.466-2.091-1.958-3.16-1.958C394.393,200.834,392.481,202.574,391.538,202.831
			 M318.184,115.95c-30.809,22.074-43.238,53.358-43.421,89.961c-0.085,17.573,4.825,34.279,15.728,48.721
			c4.015,5.315,8.449,8.115,15.653,6.729c9.844-1.896,19.598,0.436,29.216,2.679c2.543,0.592,6.328,0.584,5.752,4.264
			c-0.655,4.163-4.311,2.161-6.639,1.686c-26.93-5.502-51.061,1.499-73.747,15.879c-6.585,4.174-13.761,7.005-21.677,8.508
			c-23.379,4.431-46.591,9.754-69.931,14.408c-22.526,4.494-36.506,18.119-44.094,39.352
			c-10.195,28.531-19.372,57.299-25.809,86.986c-5.989,27.632-12.655,55.06-11.141,83.638c0.312,5.888,0.568,11.849,5.934,16.187
			c-1.102-11.646-0.658-23.048,0.896-34.399c0.346-2.554,0.016-6.51,3.392-6.564c4.221-0.063,3.551,4.256,3.684,6.997
			c0.491,10.19,0.3,20.427,1.067,30.595c0.53,7.036,0.919,14.4,5.954,20.186c1.562,1.791,3.672,3.905,6.071,2.803
			c3.088-1.421,0.795-4.197,0.385-6.273c-2.636-13.395-4.493-26.852-3.142-40.524c0.296-2.959,1.301-6.81,5.078-6.6
			c4.272,0.237,3.528,4.31,3.462,7.224c-0.261,11.938-0.164,23.83,3.193,35.434c1.367,4.719,2.906,9.587,9.132,9.115
			c5.677-0.428,9.606-3.898,10.778-9.357c0.911-4.26,0.888-8.793,0.755-13.189c-0.366-12.313,0.926-24.489,3.049-36.553
			c0.802-4.563,2.399-10.287,8.092-10.479c5.919-0.198,6.853,5.576,8.201,10.124c1.444,4.876,2.356,9.985,4.415,14.587
			c2.434,5.444,7.067,8.824,13.212,6.538c5.44-2.025,5.837-7.095,4.579-12.091c-4.949-19.708,0.748-40.902-8.54-60.103
			c-1.254-2.597-0.039-6.728,0.81-9.944c3.999-15.148,9.532-29.789,15.346-44.321c2.41-6.032,6.394-10.249,13.119-11.604
			c22.106-4.463,44.383-6.872,66.944-5.638c5.342,0.296,10.845,1.106,14.68,10.194c-6.942-2.652-12.878-2.452-18.467-2.252
			c-2.723,0.097-5.363,0.195-7.996-0.037c-6.402-0.569-9.907,2.025-12.188,8.123c-7.628,20.384-14.762,41.038-23.847,60.776
			c-20.599,44.776,3.314,86.079,38.757,105.541c21.494,11.799,42.907,23.604,63.163,37.405c5.9,4.018,8.863,3.333,10.658-3.839
			c2.554-10.198,3.45-20.778,7.718-30.598c5.856-13.481,9.338-14.921,21.977-7.636c4.875-13.52,2.644-27.725,4.607-41.424
			c1.055-7.364-1.795-12.009-8.688-15.338c-8.228-3.968-16.393-8.462-22.378-15.72c-1.581-1.92-4.236-4.618-1.297-7.033
			c2.391-1.966,4.404,0.67,5.856,2.418c4.728,5.685,11.44,8.446,17.469,12.215c5.774,3.61,9.279,2.859,12.562-4.011
			c7.577-15.867,4.836-32.21,5.163-51.107c-1.923,3.212-2.527,3.968-2.866,4.829c-2.106,5.35-3.672,12.417-11.054,11.02
			c-7.667-1.449-7.352-8.73-7.153-14.964c0.456-14.295,0.693-28.558-1.083-42.814c-0.896-7.204,0.024-14.606,3.633-20.829
			c8.754-15.082,8.026-31.144,6.347-47.467c-0.319-3.084-0.755-6.226-3.209-8.384c-6.121-5.382-7.593-12.655-8.539-20.178
			c-1.145-9.127-2.325-18.325-5.786-26.865c-3.933-9.695-4.249-19.209-0.44-28.807c2.796-7.048,2.352-13.738-0.167-20.821
			c-5.732-16.121-14.252-30.852-21.876-46.05c-3.532-7.04-9.451-16.16-0.199-21.899c9.182-5.697,14.758,3.224,19.431,9.848
			c5.089,7.219,9.497,14.918,14.276,22.358c0.892,1.394,1.994,2.971,3.971,2.617c1.632-0.288,2.091-1.846,1.733-3.177
			c-3.797-14.139-7.838-28.788-17.873-39.364c-5.355-5.646-10.892-10.805-14.665-17.658c-3.599-6.531-5.332-9.497-8.041-9.498
			C325.942,110.486,323.125,112.412,318.184,115.95"/>
	</defs>
	<clipPath id="SVGID_2_">
		<use xlink:href="#SVGID_1_"  overflow="visible"/>
	</clipPath>
	<rect x="-35.315" y="-49.418" clip-path="url(#SVGID_2_)" fill="#56B03B" width="565.341" height="1023.461"/>
</g>
</svg>
