<?xml version="1.0" encoding="utf-8"?>
<!-- Generator: Adobe Illustrator 17.0.0, SVG Export Plug-In . SVG Version: 6.00 Build 0)  -->
<!DOCTYPE svg PUBLIC "-//W3C//DTD SVG 1.1//EN" "http://www.w3.org/Graphics/SVG/1.1/DTD/svg11.dtd">
<svg version="1.1" id="Calque_1" xmlns="http://www.w3.org/2000/svg" xmlns:xlink="http://www.w3.org/1999/xlink" x="0px" y="0px"
	 width="437.82px" height="841.89px" viewBox="0 0 437.82 841.89" enable-background="new 0 0 437.82 841.89" xml:space="preserve">
<path d="M374.688,307.777c-0.818-9.467-1.955-18.91-2.582-28.388c-0.264-3.999-0.325-9.276,4.792-9.911
	c5.225-0.648,5.671,4.837,6.994,8.517c0.799,2.223,1.357,4.571,1.705,6.91c2.698,18.133,5.327,36.276,7.959,54.419
	c0.873,6.021,1.692,12.049,2.535,18.074c0.966-0.074,1.933-0.149,2.9-0.224c-4.106-13.694,4.172-26.326,2.093-39.904
	c-0.452-2.951,0.005-6.746,3.524-7.65c3.851-0.989,5.293,2.621,6.172,5.445c2.829,9.091,6.311,18.578,4.004,27.922
	c-2.802,11.349-1.537,22.143,0.21,33.243c1.159,7.37,2.574,15.35-2.386,21.7c-8.545,10.94-3.165,21.635-1.445,32.514
	c1.491-2.251,1.699-4.606,2.312-6.85c0.875-3.199,1.208-7.793,5.202-7.868c4.873-0.091,5.071,4.826,5.522,8.408
	c3.266,25.937,0.027,51.473-5.272,76.821c-0.826,3.954-2.735,8.653-7.61,8.26c-5.611-0.452-4.731-5.81-4.82-9.69
	c-0.216-9.51,0.143-19.038-0.274-28.535c-0.168-3.826,0.143-10.038-4.325-10.374c-10.159-0.762-8.526-8.071-9.239-13.997
	c-0.991-8.23,0.888-16.737-3.392-24.842c-1.706,19.127-1.765,38.254-1.613,57.379c0.015,1.898,0.926,4.087,2.097,5.63
	c6.085,8.018,6.188,16.879,4.524,26.239c-1.008,5.671-3.017,11.872-1.713,17.124c5.3,21.344-2.179,40.929-6.592,61.038
	c-1.313,5.983-4.739,11.735-3.187,21.08c4.983-6.94,6.38-12.639,7.568-18.378c1.038-5.014,1.633-10.447,5.16-14.203
	c6.274-6.683,7.76-14.851,9.005-23.308c0.543-3.686,1.195-7.385,2.197-10.967c0.901-3.224,1.965-7.319,6.217-6.86
	c4.77,0.516,5.169,4.955,5.094,8.706c-0.316,15.712-2.758,31.216-7.49,46.116c-7.628,24.021-21.616,45.597-27.702,70.277
	c-0.241,0.978-0.711,1.913-1.164,2.824c-2.077,4.169-3.684,10.401-9.446,8.669c-5.258-1.58-2.888-7.431-2.546-11.684
	c0.097-1.207,0.015-2.429,0.015-3.644c-2.749,2.702-4.003,5.724-5.251,8.748c-7.37,17.867-12.831,36.62-24.387,52.542
	c-12.991,17.898-25.904,35.854-39.097,53.602c-1.935,2.604-5.024,5.572-7.932,6.005c-9.389,1.399-16.984,6.334-25.138,10.445
	c-7.956,4.011-12.633,1.286-13.557-7.542c-0.449-4.295-2.47-5.394-5.87-5.026c-19.448,2.104-37.865-0.915-55.163-10.341
	c-3.583-1.953-6.239-1.181-7.566,3.44c-3.339,11.635-7.236,13.122-17.66,6.699c-17.06-10.512-30.926-24.335-41.465-41.394
	c-1.582-2.56-2.837-5.477-3.524-8.398c-1.063-4.521-0.609-9.064,3.96-11.622c4.175-2.337,8.075-0.481,11.152,2.4
	c2.695,2.523,4.649,5.821,7.199,8.522c2.028,2.147,4.464,5.423,7.675,3.122c3.665-2.627,0.439-5.524-1.277-7.751
	c-5.182-6.728-10.929-13.037-15.861-19.934c-6.761-9.455-12.902-19.131-25.988-20.96c-3.982-0.556-6.654-4.491-9.065-7.844
	c-8.334-11.589-16.748-23.145-23.238-35.904c-5.234-10.289-10.509-20.637-11.68-32.401c-0.435-4.369-1.411-9.287,3.982-11.424
	c5.648-2.239,9.152,1.623,11.708,5.672c4.71,7.459,8.723,15.355,13.353,22.868c1.863,3.022,4.189,7.628,8.466,5.46
	c4.466-2.263,1.71-6.909,0.305-9.972c-7.284-15.89-10.873-32.848-15.115-49.637c-0.991-3.923-2.379-7.805-4.091-11.469
	c-1.415-3.029-3.617-5.162-7.046-1.752c-7.943,7.897-11.082,1.626-13.567-4.951c-3.538-9.366-3.551-19.288-3.987-29.146
	c-0.598-13.538,0.54-27.534-4.549-40.281c-6.169-15.454-6.147-31.197-5.066-47.154c0.329-4.865,0.779-11.365,7.145-12.075
	c6.475-0.722,6.324,5.749,7.804,10.057c0.847,2.468,1.197,6.268,4.663,5.47c3.349-0.771,2.297-4.634,2.106-7.103
	c-1.289-16.605-1.281-33.187,0.015-49.787c0.296-3.792-0.309-7.662-2.504-10.767c-12.237-17.311-7.234-36.472-6.044-55.193
	c0.14-2.207,1.176-5.117,2.813-6.338c7.133-5.325,8.041-13.032,8.829-20.845c1.032-10.227,3.826-20.002,7.393-29.573
	c2.031-5.449,2.072-10.522-1.325-15.514c-5.275-7.751-4.834-15.881-1.56-24.315c5.417-13.954,11.412-27.629,18.45-40.849
	c2.553-4.795,4.886-9.713,7.171-14.644c1.135-2.45,2.56-5.458-0.442-7.303c-3.058-1.879-5.127,1.085-6.786,2.974
	c-3.125,3.557-5.949,7.407-8.626,11.322c-3.832,5.605-7.314,11.45-11.157,17.048c-2.011,2.93-4.885,4.996-8.678,4.022
	c-4.316-1.109-5.847-4.781-5.754-8.646c0.437-18.105,7.863-33.974,19.744-46.682c5.29-5.658,10.796-10.78,14.619-17.615
	c8.2-14.661,17.797-28.215,32.242-37.47c3.349-2.146,7.289-4.57,11.229-1.122c3.857,3.376,0.983,6.732-0.484,10.087
	c-0.889,2.031-3.26,4.375-0.697,6.4c2.311,1.826,4.699,0.045,6.179-1.774c7.826-9.624,17.74-16.712,27.774-23.759
	c5.264-3.696,5.985-6.66-1.636-9.308c-7.03-2.443-6.764-7.986-1.77-12.753c9.771-9.328,36.638-11.286,45.996-1.778
	c11.91,12.101,29.023,9.293,41.399,18.849c1.29-3.116,0.147-4.004-0.703-5.017c-2.502-2.985-7.214-5.585-4.205-10.203
	c3.212-4.931,8.08-2.513,11.919-0.591c18.66,9.343,35.739,20.963,49.823,36.537c2.884,3.189,6.582,6.929,4.476,11.703
	c-2.518,5.709-6.443-2.297-10.354,0.007c1.576,2.183,2.652,3.897,3.944,5.43c21.476,25.484,37.665,53.962,48.711,85.408
	c2.939,8.365,5.57,16.805,6.602,25.6c0.494,4.213,1.593,10.1-3.75,11.445c-5.808,1.462-6.635-4.561-7.898-8.584
	c-2.43-7.747-6.646-14.487-11.814-21.063c9.375,40.624,22.931,80.237,26.84,121.969
	C375.714,313.185,374.915,310.413,374.688,307.777 M326.176,197.157c0.426-5.621-0.964-11.943-4.979-17.017
	c-7.808-9.869-11.693-22.242-21.076-31.31c-7.072-6.834-12.091-15.717-21.313-21.563c-4.328,3.005-0.383,6.493,0.519,11.585
	c2.743,15.494,22.048,34.306,24.737,36.935c4.774,4.668,6.422,11.065,9.086,16.908c2.044,4.484,2.558,10.17,8.58,11.791
	C324.783,203.368,325.869,201.208,326.176,197.157 M363.227,581.673c-2.671,8.762-4.764,17.701-7.506,26.438
	c-2.295,7.31-3.649,14.322-0.178,21.738c3.108,6.642-1.6,13.026-1.32,19.789c5.045-6.102,8.869-13.111,7.204-20.887
	c-2.203-10.287,0.689-19.328,3.549-28.789c2.764-9.144,6.676-18.316,4.495-28.906C364.165,573.517,364.333,578.044,363.227,581.673"
	/>
<path d="M156.111,4.075c-7.323-0.017-12.814,3.94-18.029,8.4c-4.087,3.495-7.549,6.174-12.882,0.97
	c-4.251-4.148-9.798-2.06-13.997,1.228c-12.935,10.129-28.137,18.52-29.377,37.904c-0.243,3.803-3.706,6.418-6.42,8.932
	c-13.862,12.843-24.106,28.376-33.344,44.644c-1.652,2.909-2.972,6.142-3.721,9.393c-0.92,3.992,0.898,7.309,4.264,9.608
	c3.706,2.531,7.2,1.564,10.143-1.285c2.91-2.818,5.569-5.907,8.215-8.982c2.512-2.918,5.07-5.604,9.424-4.75
	c8.649,1.696,14.193-2.946,18.858-9.274c9.256-12.556,18.198-25.353,27.75-37.678c12.4-16.001,28.45-27.969,44.941-39.413
	c4.289-2.977,7.799-7.017,5.564-12.911C165.57,5.77,161.329,3.958,156.111,4.075"/>
<path d="M104.786,757.701c1.591-0.245,1.94-0.386,2.258-0.334c4.863,0.792,9.386,7.745,14.573,1.589
	c5.106-6.059,2.226-12.733-1.45-17.904c-13.599-19.131-24.448-39.873-36.304-60.027c-1.023-1.74-2.375-3.305-3.694-4.848
	c-3.001-3.507-6.54-6.475-11.424-4.599c-5.232,2.009-6.307,7.052-6.086,11.838c0.316,6.828,3.04,13.119,5.686,19.409
	c2.138,5.083,8.622,11.93-5.26,10.842c-7.344-0.576-9.267,6.941-7.998,13.663c1.756,9.299,6.297,18.041,13.425,23.428
	c11.766,8.893,18.186,21.638,27.263,32.414c4.146,4.922,8.036,10.171,12.792,14.435c4.695,4.21,10.862,7.049,16.436,1.849
	c5.331-4.973,2.608-10.792-1.009-15.58c-4.488-5.94-9.592-11.412-14.276-17.21C107.691,764.156,104.918,761.92,104.786,757.701"/>
<path d="M371.41,733.58c6.343-11.529,12.116-21.876,17.723-32.313c1.435-2.672,2.594-5.555,3.43-8.471
	c0.924-3.224,2.212-7.439-1.233-9.321c-4.411-2.411-6.656,2.014-8.626,4.957c-10.372,15.499-20.587,31.103-30.783,46.719
	c-1.477,2.262-3.51,4.725-3.663,7.196c-1.13,18.26-14.562,29.125-24.496,42.183c-3.616,4.753-10.665,10.525-3.971,16.587
	c6.511,5.897,13.168-0.106,17.708-4.677c14.108-14.208,27.115-29.452,38.415-46.035c2.256-3.31,3.88-7.15,5.231-10.946
	c0.988-2.779,1.994-6.305-1.082-8.423C377.127,729.016,375.581,733.285,371.41,733.58"/>
<path d="M42.777,254.368c-2.468,9.063-0.769,20.657-8.281,26.65c-9.343,7.454-11.23,17.044-13.854,27.093
	c-1.281,4.904-2.807,10.901-9.123,10.384c-6.123-0.501-6.83-6.757-8.031-11.627c-4.72-19.15-2.13-38.206,1.013-57.227
	c1.386-8.391,5.539-15.427,12.213-20.478c7.547-5.711,13.083-12.164,15.317-21.793c1.527-6.578,6.361-11.891,14.07-10.248
	c7.12,1.518,7.203,8.047,7.343,15.356C52.113,226.045,46.68,240.031,42.777,254.368"/>
<path d="M14.903,558.428c11.819-1.035,12.093,10.725,13.283,19.258c1.279,9.174,4.361,16.744,12.357,22.24
	c6.32,4.344,9.113,11.164,7.851,18.691c-1.056,6.296-0.236,11.966,1.784,17.867c2.408,7.036,4.537,14.214,6.107,21.477
	c1.603,7.418,0.725,14.759-7.246,18.123c-7.951,3.355-11.8-3.068-15.23-8.439c-17.209-26.936-25.19-54.929-28-87.93
	C5.103,571.432,3.314,559.443,14.903,558.428"/>
<path d="M24.231,372.132c1.977-11.622,7.887-29.423,9.745-38.81c1.103-5.573,2.518-12.595,10.076-11.872
	c8.152,0.78,8.431,8.515,8.033,14.321c-1.188,17.302-1.952,34.578-1.51,51.92c0.147,5.754-0.006,11.566-0.692,17.272
	c-0.439,3.648-2.176,8.791-6.659,7.152c-8.314-3.039-5.477,2.935-5.757,6.118c-0.354,4.028,0.347,8.176-0.238,12.149
	c-0.68,4.618-1.482,10.44-7.508,10.549c-6.136,0.111-6.97-5.852-7.786-10.368c-1.95-10.784-0.367-21.69-0.308-32.546
	C21.628,389.184,22.565,381.924,24.231,372.132"/>
<path d="M21.06,493.986c0.659,13.232,4.415,25.174,9.189,36.819c1.599,3.9,4.267,7.347,9.189,6.401
	c5.141-0.988,5.832-5.387,5.55-9.541c-0.801-11.813-1.426-23.681-3.18-35.368c-1.004-6.688-1.964-15.736-11.914-14.666
	C19.948,478.7,22.008,487.741,21.06,493.986"/>
<path d="M397.105,229.572c-2.394-14.418-3.224-29.322-12.328-42.285c-5.713-8.135-4.805-19.003-8.899-27.995
	c-2.679-5.885-3.916-16.586-11.115-14.46c-7.199,2.125-3.091,11.859-1.305,18.072c6.641,23.1,13.658,46.092,20.619,69.099
	c1.257,4.154,2.314,9.825,7.925,8.857C397.435,239.922,396.427,234.083,397.105,229.572"/>
<path d="M216.381,823.887c2.546-0.644,5.496-0.511,6.956-1.921c4.877-4.706,10.671-6.592,17.102-7.884
	c3.662-0.735,6.929-3.323,6.555-7.87c-0.376-4.573-3.983-6.57-7.784-6.546c-10.58,0.068-20.793-2.188-31.16-3.627
	c-6.504-0.903-12.011,1.912-13.74,9.194c-1.802,7.587,1.426,12.585,8.455,15.064C207.201,821.86,211.883,822.727,216.381,823.887"/>
<path d="M314.122,54.454c5.274,9.338,11.961,19.127,20.304,27.432c4.782,4.76,9.73,9.233,13.846,14.649
	c2.241,2.949,4.494,8.31,9.34,5.261c4.768-3,2.487-8.2,0.449-11.904c-7.704-14.003-16.808-26.97-30.099-36.401
	c-2.477-1.758-4.857-3.812-7.599-4.999C316.307,46.734,313.809,48.81,314.122,54.454"/>
<path d="M437.82,344.257c-1.614-14.379-2.581-27.932-6.881-40.884c-1.253-3.775-2.832-8.772-7.737-8.021
	c-5.384,0.824-4.562,6.259-4.039,10.037c2.135,15.4,5.905,30.557,6.574,46.191c0.126,2.934,1.592,6.243,5.473,6.221
	c3.277-0.019,4.476-2.808,5.164-5.462C437.132,349.415,437.456,346.378,437.82,344.257"/>
<path d="M410.545,638.52c-0.118,5.292-0.436,8.768,3.103,10.01c3.544,1.244,5.987-1.573,7.26-4.163
	c6.19-12.597,9.623-25.928,9.142-40.071c-0.092-2.705-0.64-5.724-3.893-6.363c-3.365-0.661-5.004,2.044-5.739,4.615
	C416.8,615.192,413.434,627.909,410.545,638.52"/>
<path d="M224.934,1.38c-3.859,0.007-7.758,0.316-9.188,4.656c-1.54,4.672,1.135,7.877,4.868,10.019
	c6.855,3.932,14.744,4.658,22.245,6.533c2.387,0.596,4.831-0.191,5.855-2.834c1.348-3.482,0.463-6.786-1.869-9.455
	C241.077,3.697,233.188,2.025,224.934,1.38"/>
<path d="M147.724,841.911c5.331-0.505,8.388-4.061,8.398-9.885c0.01-6.015-9.851-13.929-16.735-13.553
	c-5.725,0.313-8.232,4.083-8.452,9.375C130.687,833.786,140.359,842.101,147.724,841.911"/>
<path d="M423.844,512.661c0.08,4.14,0.492,7.467,3.815,8.558c3.936,1.293,5.366-2.178,6.348-4.944
	c3.081-8.679,3.552-17.778,3.401-26.88c-0.044-2.652-0.795-5.782-4.187-6.048c-3.481-0.273-4.417,2.93-4.944,5.428
	C426.543,497.01,425.179,505.324,423.844,512.661"/>
<g>
	<defs>
		<path id="SVGID_1_" d="M19.978,624.228c3.911,12.604,9.132,24.321,15.9,35.669c5.027,0.571,10.058,1.081,15.096,1.57
			c-0.086-0.719-0.218-1.477-0.389-2.273c-1.388-6.415-3.324-13.226-5.925-20.823c-2.515-7.343-3.156-13.929-2.018-20.717
			c0.894-5.326-1.026-9.914-5.404-12.922c-4.626-3.181-8.082-7.06-10.57-11.866c-1.1-2.126-2.01-4.447-2.737-7.005
			c-3.93-0.397-7.861-0.789-11.792-1.174C13.664,599.212,16.242,612.192,19.978,624.228 M193.729,500.837
			c-9.326,21.853-18.641,43.76-29.258,64.997c-5.482,10.971-4.564,18.1,4.521,26.735c42.62,40.501,79.19,86.164,112.438,134.573
			c11.13,16.203,20.993,18.33,37.115,6.834c19.606-13.988,38.34-29.18,58.474-42.469c5.684-3.752,10.002-9.015,9.653-16.62
			c0.098-12.985-8.195-21.086-20.091-17.148c-25.771,8.526-43.401-0.49-56.195-22.77c-1.663-2.896-3.666-5.602-5.481-8.413
			C275.186,580.56,239.42,539.39,202.997,498.73c-2.046-2.284-3.555-3.358-4.817-3.358
			C196.488,495.372,195.239,497.303,193.729,500.837 M30.517,483.427c-2.053,0.222-2.329,0.793-2.496,1.139
			c-0.587,1.213-0.704,3.577-0.808,5.664l-0.012,0.245c0.929,0.54,2.01,0.902,3.188,1.073c2.095,0.303,3.779-0.315,5.163-1.575
			c-0.327-1.904-0.746-3.755-1.427-5.05c-0.567-1.092-1.069-1.547-2.679-1.547C31.158,483.377,30.848,483.392,30.517,483.427
			 M41.484,328.215c-0.856,1.528-1.349,4.031-1.788,6.24c-0.851,4.311-2.469,10.135-4.183,16.305
			c-2.095,7.542-4.467,16.095-5.532,22.35c-1.598,9.385-2.523,16.472-2.523,24.908v0.035c-0.016,3.394-0.179,6.788-0.334,10.069
			c-0.358,7.468-0.696,14.524,0.552,21.406l0.089,0.508c0.253,1.419,0.774,4.327,1.415,5.039c0.063,0.012,0.179,0.027,0.373,0.027
			h0.063c0.26-0.004,0.4-0.035,0.458-0.051c0.681-0.711,1.163-3.984,1.368-5.392l0.019-0.124c0.245-1.672,0.187-3.596,0.128-5.634
			c-0.062-1.967-0.12-4.004,0.067-6.154c0.008-0.226-0.059-0.839-0.101-1.248c-0.222-2.138-0.599-5.715,1.905-8.494
			c1.054-1.167,2.963-2.558,6.096-2.558c0.112,0,0.229,0,0.346,0.008c1.625-4.451,3.277-8.895,4.891-13.353
			c0.008-1.38-0.008-2.799-0.046-4.261c-0.389-15.278,0.077-31.462,1.52-52.467c0.077-1.131,0.315-4.568-0.447-6.59
			c-0.318-0.844-0.634-1.365-2.321-1.528c-0.175-0.015-0.343-0.023-0.494-0.023C42.285,327.231,42.005,327.278,41.484,328.215
			 M109.933,290.155c-1.489,0.245-2.978,0.494-4.467,0.746c-0.182,0.028-0.369,0.058-0.552,0.093
			c-1.4,0.237-2.799,0.478-4.195,0.723c-2.305,0.404-4.61,0.82-6.912,1.248c-0.766,0.14-1.528,0.28-2.294,0.423
			c-1.015,0.19-2.026,0.381-3.037,0.576c-0.225,0.042-0.447,0.085-0.673,0.128c-1.022,0.194-2.045,0.392-3.067,0.594
			c-0.653,0.129-1.302,0.253-1.952,0.385c-0.859,0.167-1.718,0.338-2.573,0.513l-0.584,0.117
			c-1.271,5.532-3.798,11.126-9.614,15.538c-0.249,0.373-0.607,1.341-0.661,2.169c-0.222,3.495-0.572,7.005-0.914,10.403
			c-1.473,14.738-2.865,28.655,5.901,41.053c0.373,0.529,0.72,1.081,1.035,1.652c4.167-1.473,6.737-4.941,8.872-10.034
			c8.545-20.375,17.109-40.816,30.16-58.92c1.508-2.092,4.346-5.345,3.72-6.45c-0.776-1.37-1.983-1.782-3.326-1.782
			C113.21,289.334,111.426,289.91,109.933,290.155 M373.998,145.241c-1.679,0.152-2.869,0.556-3.701,1.139
			c-2.81,1.978-1.527,6.045-1.177,9.571c0.634,6.364-0.58,12.362-2.387,18.232c-1.042,3.374-2.278,6.706-3.476,10.038
			c-0.287,0.797-0.676,1.718-1.201,2.472c-0.844,1.194-2.041,1.975-3.751,1.182c-2.345-1.085-0.576-3.604-0.055-5.392
			c0.331-1.139,0.669-2.274,0.999-3.409v-0.004c1.652-5.618,3.212-11.254,3.258-17.183c0.004-0.673,0.012-1.361,0.012-2.053
			c-0.004-3.526-0.202-7.215-1.815-9.863v-0.008c-1.116-1.827-2.9-3.157-5.762-3.588c-3.98-0.599-6.772,1.038-8.762,3.744
			c-1.672,2.263-2.78,5.272-3.561,8.343c-3.627,14.303-7.966,28.395-14.096,41.858c-1.688,3.713-4.117,8.016-8.545,7.387
			c-4.735-0.673-4.526-4.712-4.203-8.394v-0.004c0.043-0.486,0.089-0.964,0.124-1.431c0.353-4.568-0.498-8.867-3.895-12.012
			c-0.813-0.751-1.652-1.357-2.492-1.816c-4.117-2.259-8.296-1.019-9.447,4.028c-3.409,14.975-7.584,31.323-0.039,45.221
			c6.228,11.465,6.235,21.067,2.298,32.22c-2.453,6.943-4.261,14.112-6.492,21.137c-10.011,31.462-5.929,25.794-33.107,16.747
			c-21.176-7.051-42.425-12.763-61.662-26.128c-2.935-2.041-8.176-4.412-13.004-4.949c-30.642-3.413-53.843,9.401-69.456,33.445
			c-17.887,27.548-31.244,57.385-41.504,88.412c-0.358,11.398-0.093,22.836,0.785,34.153c0.02,0.245,0.059,0.576,0.097,0.93
			c0.175,1.461,0.412,3.463-0.023,5.512c-0.747,3.514-3.184,5.99-6.687,6.796c-0.739,0.171-1.478,0.257-2.189,0.257
			c-1.765,0-3.413-0.529-4.801-1.512c-3.697,19.065-2.892,38.422,7.514,56.432c2.329,4.031,2.298,8.328,1.396,12.689
			c-2.018,9.759-3.949,19.536-5.96,29.294v0.004c0.482,2.815,1.17,5.559,2.177,8.223c0.957,2.53,1.621,3.844,2.06,4.521
			c0.435-0.288,1.077-0.786,1.94-1.645c2.297-2.282,4.782-3.44,7.382-3.44c2.671,0,6.411,1.194,9.058,6.862
			c1.882,4.024,3.382,8.23,4.463,12.506c0.638,2.523,1.267,5.085,1.878,7.561c3.557,14.431,6.916,28.056,12.883,41.076
			c0.117,0.249,0.241,0.51,0.369,0.781c0.843,1.777,2.002,4.211,2.251,6.889c0.397,4.311-1.641,7.931-5.59,9.933
			c-1.559,0.789-3.161,1.189-4.766,1.189c-1.971,0-4.902-0.626-7.689-3.615c-1.368-1.47-2.387-3.157-3.207-4.514
			c-0.136-0.226-0.272-0.447-0.404-0.661c-2.232-3.623-4.331-7.344-6.361-10.94c-2.231-3.954-4.537-8.039-6.959-11.876
			c-1.983-3.141-3.098-3.612-3.584-3.612c-0.272,0-0.634,0.086-1.046,0.249c-0.327,0.128-0.482,0.233-0.533,0.276
			c-0.276,0.645-0.031,2.904,0.098,4.129c0.039,0.342,0.074,0.685,0.109,1.018c1.061,10.649,5.909,20.181,11.04,30.273l0.035,0.062
			c4.665,9.175,10.512,17.919,16.507,26.393c11.379-4.922,19.869-14.52,26.622-27.388c8.28-15.779,14.582-32.376,21.596-48.669
			c18.124-42.095,41.294-82.219,52.012-127.226c6.446-27.069,17.125-52.918,22.085-80.349c0.614-3.409,3.052-7.569-1.873-9.656
			c-10.633-4.513-21.545-7.418-33.197-3.997c-2.608,0.766-5.967,5.097-7.654,1.482c-1.964-4.207,3.246-6.061,6.341-7.445
			c11.017-4.922,21.759-1.392,32.24,2.161c28.547,9.673,55.492,23.54,84.548,32.011c10.473,3.052,18.808,1.602,26.999-5.271
			c6.874-5.762,11.931-12.553,15.259-20.822c7.892-19.621,14.03-39.809,19.24-60.266c1.322-5.186,2.974-10.244,4.817-15.224
			c1.189-3.231,2.464-6.43,3.779-9.61c1.461-3.545,2.974-7.068,4.482-10.59c2.932-6.834,5.839-13.668,8.331-20.643
			c1.046-2.923,2.002-5.878,2.889-8.86c2.682-8.992,4.716-18.217,6.551-27.509c1.987-10.038,3.74-20.157,5.824-30.145
			c0.793-3.794,0.132-8.005-0.431-11.939c-0.358-2.5-1.057-5.8-4.483-5.765c-2.97,0.032-3.106,3.048-3.693,5.248
			c-1.644,6.146-3.071,12.359-4.914,18.443c-0.12,0.397-0.253,0.824-0.4,1.26c-0.762,2.201-2.018,4.541-4.844,3.277
			c-2.597-1.162-0.704-4.187-0.016-6.31c0.369-1.143,0.711-2.29,1.022-3.441c2.531-9.272,3.196-18.726,2.099-28.321
			c-0.653-5.707-3.552-9.629-9.32-9.63C374.848,145.182,374.431,145.202,373.998,145.241 M239.986,222.088
			c-2.718-0.575-2.986-3.471-2.745-5.738c1.073-10.193,2.519-20.328,1.578-30.658c-0.237-2.628,1.457-5.665,4.541-5.637
			c4.02,0.031,4.3,3.685,4.225,6.633c-0.113,4.296-0.66,12.914-0.66,12.914s-0.793,11.88-1.664,17.751
			c-0.341,2.292-1.645,4.841-4.299,4.842C240.655,222.195,240.33,222.16,239.986,222.088 M134.744,148.919
			c-16.518,18.392-22.155,40.777-21.234,68.099c-0.225,17.269,4.984,35.284,20.448,49.586c5.012,4.634,9.016,6.131,15.842,3.013
			c22.21-10.146,43.483-8.121,63.388,6.714c13.315,9.925,19.014,8.903,30.117-3.638c3.799-4.292,4.385-6.986-1.71-9.587
			c-7.376-3.149-14.656-6.687-20.169-12.876c-4.257-4.778-5.454-10.135-1.893-15.62c3.864-5.948,9.618-7.041,15.877-4.195
			c5.773,2.624,11.332,5.719,16.969,8.638c6.003,3.11,8.258,0.54,9.436-5.427c3.584-18.144,2.523-36.042-2.586-53.665
			c-8.49-29.262-27.57-48.199-57.458-54.29c-5.134-1.046-10.135-1.559-14.986-1.559
			C166.706,124.112,149.138,132.888,134.744,148.919"/>
	</defs>
	<clipPath id="SVGID_2_">
		<use xlink:href="#SVGID_1_"  overflow="visible"/>
	</clipPath>
	<rect x="-83.778" y="-74.499" clip-path="url(#SVGID_2_)" fill="#E52620" width="593.707" height="956.236"/>
</g>
<path fill="#010202" d="M3.028,316.428c0.614-0.389,1.244-0.77,1.886-1.135C4.273,315.655,3.643,316.036,3.028,316.428
	 M5.886,314.753v0.004c0.222-0.121,0.443-0.237,0.669-0.354C6.329,314.516,6.107,314.632,5.886,314.753 M71.796,496.751
	c-11.694-20.235-11.262-42.169-5.952-63.477c0.047-0.187,0.093-0.377,0.14-0.564v-0.004c-0.244-0.777-0.443-1.586-0.684-2.286
	c-1.279-3.732-1.341-9.093-5.548-9.983c-1.598,6.053-2.923,12.184-3.88,18.423c-2.247,14.68-3.324,29.204,0.428,43.137v0.004
	c0.292,1.089,0.614,2.169,0.972,3.25c0.004,0.012,0.008,0.023,0.012,0.035c1.438,4.401,3.402,8.739,5.999,13
	c2.01,3.301,2.158,7.025,1.606,10.734c-1.209,8.102-2.616,16.165-4.226,24.181v0.008c0.47,5.369,1.353,10.675,3.293,15.811
	c0.237,0.626,0.478,1.248,0.727,1.854c2.97-13.782,5.656-27.625,8.51-41.434C74.094,505.078,74.125,500.782,71.796,496.751
	 M395.023,155.497c-1.1-0.292-2.457-1.52-2.776-2.589c-4.327-14.474-13.797-17.759-27.303-13.043
	c-1.361,0.474-3.215-0.307-4.801-0.676c-9.474-2.22-14.493-1.971-18.306,2.974c-1.652,2.142-3.075,5.167-4.541,9.249
	c-4.319,12.028-7.76,24.371-11.772,37.694v0.004c-0.51,1.679-1.022,3.371-1.551,5.085c-2.947-14.003-6.484-18.287-14.971-19.586
	c-2.084-0.319-4.121-0.257-5.995,0.136c-4.833,1.011-8.553,4.21-9.066,8.634c-2.228,19.185-9.653,38.892,1.527,57.708
	c2.228,3.744,3.309,7.278,2.088,11.383c-4.214,14.124-8.595,28.197-12.693,42.355c-1.617,5.59-4.692,6.38-9.84,4.653
	c-9.202-3.091-18.442-6.286-27.909-8.308c-7.907-1.687-8.408-3.036-2.624-9.019c40.28-41.667,36.015-112.888-8.619-149.665
	c-20.989-17.296-57.237-22.187-78.665-10.617c-55.235,29.818-69.51,102.815-29.542,150.956c1.388,1.672,4.416,3.087,2.717,5.668
	c-0.847,1.287-3.468,1.812-5.342,1.955c-16.981,1.322-33.624,4.276-50.127,7.903c-0.338,2.986-0.793,5.917-1.703,8.665
	c0.206-0.043,0.416-0.086,0.626-0.128c0.828-0.175,1.656-0.346,2.484-0.513c1.295-0.268,2.593-0.529,3.891-0.789
	c0.855-0.175,1.714-0.346,2.574-0.513c0.649-0.132,1.298-0.257,1.952-0.385c1.022-0.202,2.045-0.4,3.067-0.595
	c0.225-0.043,0.447-0.086,0.673-0.128c1.01-0.194,2.022-0.385,3.036-0.575c0.766-0.144,1.528-0.284,2.294-0.424
	c2.302-0.428,4.607-0.844,6.912-1.248c1.396-0.245,2.795-0.486,4.195-0.723c0.183-0.035,0.369-0.066,0.552-0.093
	c1.489-0.253,2.978-0.501,4.467-0.746c2.752-0.451,6.5-2.033,8.195,0.96c0.626,1.104-2.212,4.358-3.72,6.45
	c-13.051,18.104-21.615,38.546-30.16,58.92c-2.994,7.138-6.838,11.084-14.734,10.823c-0.194-0.008-0.389-0.012-0.579-0.016
	c0.206,0.315,0.424,0.626,0.645,0.941c1.987,2.807,2.671,6.247,2.562,9.688c3.176,1.442,1.085,4.852-0.505,7.721v0.004
	c-0.529,9.171-0.661,18.342-0.396,27.513c10.897-37.834,25.856-74.265,47.363-107.387c15.613-24.045,38.814-36.858,69.456-33.445
	c4.829,0.537,10.069,2.908,13.004,4.949c19.236,13.366,40.486,19.077,61.662,26.129c27.178,9.046,23.096,14.715,33.107-16.748
	c2.231-7.025,4.039-14.194,6.492-21.137c3.938-11.154,3.93-20.756-2.298-32.22c-7.546-13.898-3.371-30.246,0.039-45.221
	c1.151-5.046,5.33-6.286,9.447-4.028c0.84,0.459,1.68,1.065,2.492,1.815c3.398,3.145,4.249,7.445,3.895,12.013
	c-0.035,0.466-0.082,0.945-0.124,1.431v0.004c-0.323,3.682-0.533,7.721,4.202,8.393c4.428,0.63,6.858-3.674,8.545-7.386
	c6.13-13.463,10.469-27.555,14.096-41.858c0.781-3.071,1.89-6.08,3.561-8.343c1.991-2.706,4.782-4.343,8.763-3.744
	c2.861,0.432,4.646,1.761,5.761,3.588v0.008c1.613,2.647,1.811,6.337,1.816,9.863c0,0.692-0.008,1.38-0.012,2.053
	c-0.047,5.929-1.605,11.566-3.257,17.183v0.004c-0.331,1.135-0.669,2.27-1,3.409c-0.521,1.788-2.289,4.307,0.055,5.392
	c1.71,0.793,2.908,0.012,3.751-1.182c0.525-0.754,0.914-1.675,1.201-2.472c1.197-3.332,2.434-6.663,3.476-10.038
	c1.807-5.87,3.02-11.869,2.387-18.233c-0.35-3.526-1.633-7.592,1.178-9.571c0.832-0.583,2.022-0.987,3.701-1.139
	c6.605-0.599,9.875,3.464,10.574,9.571c1.097,9.595,0.432,19.049-2.099,28.321c-0.311,1.151-0.653,2.298-1.022,3.441
	c-0.688,2.123-2.582,5.147,0.015,6.31c2.827,1.263,4.082-1.077,4.844-3.277c0.148-0.435,0.28-0.863,0.4-1.26
	c1.843-6.084,3.269-12.296,4.914-18.443c0.587-2.2,0.723-5.217,3.693-5.248c3.425-0.035,4.124,3.266,4.482,5.765
	c0.564,3.934,1.225,8.145,0.432,11.939c-2.084,9.987-3.837,20.107-5.824,30.145c-1.835,9.291-3.868,18.517-6.551,27.509
	c-0.886,2.982-1.843,5.936-2.888,8.86c-2.492,6.974-5.4,13.809-8.332,20.643c-1.508,3.522-3.02,7.044-4.482,10.59
	c-1.314,3.18-2.589,6.38-3.779,9.61c-1.842,4.98-3.495,10.038-4.817,15.224c-5.209,20.457-11.348,40.645-19.24,60.266
	c-3.327,8.269-8.385,15.061-15.259,20.822c-8.191,6.873-16.526,8.323-26.999,5.272c-29.056-8.471-56.001-22.338-84.547-32.011
	c-10.481-3.553-21.222-7.083-32.24-2.161c-3.095,1.384-8.304,3.238-6.341,7.445c1.687,3.615,5.046-0.715,7.655-1.481
	c11.651-3.421,22.564-0.517,33.196,3.996c4.926,2.088,2.488,6.247,1.874,9.657c-4.961,27.431-15.64,53.28-22.086,80.349
	c-10.718,45.007-33.888,85.131-52.012,127.226c-7.013,16.293-13.315,32.889-21.596,48.669
	c-7.837,14.936-18.019,25.468-32.341,29.398c1.59,2.263,3.196,4.51,4.809,6.753c10.337-2.593,18.233-8.51,24.329-17.455
	c11.702-17.168,21.495-35.494,29.674-54.586c2.488-5.812,4.156-7.826,9.229-2.399c35.677,38.149,69.716,77.67,100.685,119.765
	c1.582,2.15,14.909,20.558,17.451,23.544c12.141,14.267,25.464,15.861,40.245,4.661c2.049-1.551,4.16-3.102,6.278-4.618
	c12.756-9.136,25.83-17.179,27.509-18.583c5.089-4.245,10.652-7.88,16.056-11.729c6.799-4.84,13.342-10.018,18.353-17.168
	c1.547-2.208,2.819-4.416,3.81-6.609c3.837-8.459,3.542-16.686-1.015-23.675c-1.842-2.822-3.813-5.031-5.917-6.714
	c-6.208-4.961-13.568-5.353-22.109-3.491c-1.637,0.358-3.292,0.665-4.898,1.139c-14.481,4.304-25.931,1.213-34.763-12.055
	c-35.7-53.642-77.056-102.897-118.972-151.679c-3.884-4.525-2.749-8.58-1.493-13.02c8.848-31.256,18.027-62.423,26.533-93.769
	c2.037-7.499,4.443-8.794,11.659-5.738c19.411,8.23,38.911,16.413,58.882,23.1c21.576,7.219,31.459,2.955,44.155-16.188
	c9.416-14.201,12.977-30.755,18.586-46.507c2.632-7.386,5.684-16.099,8.759-24.935v-0.004c0.917-2.632,1.835-5.272,2.744-7.892
	c3.32-9.591,6.527-18.909,9.094-26.42c2.55-7.449,4.471-13.109,5.26-15.484c0.272-0.816,2.803-9.26,5.932-20.818
	c0.813-2.993,1.664-6.193,2.523-9.529c0.004-0.004,0.004-0.004,0.004-0.008v-0.004c4.097-15.842,8.444-34.627,9.929-47.907
	C408.159,171.518,410.177,159.509,395.023,155.497 M213.188,276.332c-19.905-14.835-41.177-16.861-63.387-6.714
	c-6.827,3.118-10.831,1.621-15.842-3.013c-15.465-14.303-20.674-32.318-20.449-49.586c-0.921-27.322,4.716-49.707,21.234-68.099
	c17.871-19.905,40.641-28.624,67.026-23.248c29.888,6.092,48.968,25.028,57.459,54.29c5.108,17.622,6.17,35.521,2.585,53.664
	c-1.178,5.967-3.433,8.537-9.436,5.427c-5.637-2.92-11.196-6.014-16.969-8.638c-6.259-2.846-12.013-1.753-15.877,4.195
	c-3.561,5.485-2.364,10.843,1.893,15.62c5.513,6.189,12.794,9.727,20.169,12.876c6.096,2.601,5.509,5.295,1.711,9.587
	C232.203,285.234,226.503,286.257,213.188,276.332 M202.999,498.73c36.423,40.66,72.189,81.831,101.906,127.828
	c1.816,2.811,3.818,5.516,5.481,8.413c12.794,22.279,30.425,31.295,56.196,22.769c2.663-0.883,5.143-1.159,7.39-0.914
	c0.085,0.008,0.171,0.016,0.257,0.031c0.046,0.004,0.089,0.008,0.136,0.016c0.125,0.016,0.249,0.035,0.37,0.058
	c0.171,0.027,0.338,0.058,0.505,0.093c0.113,0.024,0.222,0.047,0.33,0.074c0.432,0.097,0.852,0.217,1.26,0.357
	c0.144,0.051,0.288,0.101,0.428,0.156c0.186,0.07,0.365,0.144,0.544,0.225c0.113,0.047,0.225,0.097,0.338,0.152
	c0.094,0.042,0.187,0.089,0.276,0.136c0.132,0.066,0.264,0.132,0.393,0.206c0.14,0.074,0.276,0.152,0.412,0.237
	c0.105,0.058,0.206,0.124,0.307,0.19c0.089,0.054,0.179,0.113,0.264,0.175c0.113,0.074,0.226,0.152,0.335,0.233
	c0.101,0.07,0.194,0.14,0.292,0.218c0.105,0.082,0.21,0.163,0.315,0.249c0.094,0.078,0.187,0.156,0.28,0.237
	c0.183,0.16,0.362,0.323,0.541,0.498c0.089,0.086,0.175,0.175,0.264,0.264c0.171,0.175,0.339,0.358,0.505,0.549
	c0.168,0.186,0.326,0.381,0.479,0.579c0.082,0.097,0.155,0.199,0.229,0.299c0.074,0.101,0.147,0.202,0.222,0.307
	c0.077,0.105,0.148,0.21,0.217,0.315c0.066,0.102,0.132,0.202,0.194,0.303c0.078,0.117,0.156,0.237,0.226,0.362
	c0.12,0.206,0.241,0.416,0.358,0.626c0.07,0.128,0.14,0.26,0.203,0.393c0.058,0.117,0.117,0.237,0.175,0.358
	c0.234,0.482,0.448,0.98,0.638,1.497c0.047,0.124,0.089,0.249,0.136,0.377c0.059,0.171,0.117,0.342,0.171,0.514
	c0.077,0.233,0.148,0.474,0.214,0.715c0.105,0.365,0.198,0.739,0.283,1.12c0.035,0.148,0.07,0.299,0.097,0.455
	c0.02,0.086,0.035,0.171,0.051,0.257c0.031,0.148,0.058,0.299,0.082,0.451c0.023,0.124,0.042,0.249,0.062,0.373
	c0.008,0.039,0.016,0.078,0.02,0.12c0.031,0.187,0.058,0.377,0.082,0.572c0.011,0.097,0.023,0.19,0.031,0.288
	c0.016,0.101,0.027,0.202,0.035,0.307c0.011,0.105,0.023,0.21,0.031,0.319c0.016,0.179,0.031,0.362,0.042,0.548
	c0.016,0.183,0.028,0.369,0.035,0.556c0.012,0.144,0.016,0.284,0.02,0.424c0.004,0.132,0.007,0.268,0.011,0.404
	c0.008,0.288,0.012,0.579,0.008,0.871c0.349,7.604-3.969,12.868-9.653,16.62c-0.63,0.416-1.256,0.832-1.882,1.252
	c-0.288,0.19-0.572,0.381-0.852,0.571c-0.548,0.365-1.096,0.735-1.64,1.108c-0.821,0.556-1.633,1.112-2.445,1.676
	c-0.35,0.241-0.7,0.482-1.046,0.723c-0.933,0.642-1.858,1.291-2.783,1.944c-0.797,0.56-1.594,1.123-2.387,1.687
	c-0.307,0.218-0.61,0.435-0.917,0.657c-0.918,0.657-1.835,1.318-2.752,1.978c-0.61,0.439-1.221,0.883-1.827,1.326
	c-0.408,0.292-0.813,0.587-1.217,0.886c-0.813,0.591-1.621,1.186-2.43,1.781c-1.213,0.894-2.422,1.788-3.631,2.686
	c-1.213,0.894-2.418,1.796-3.623,2.698c-1.703,1.267-3.406,2.543-5.101,3.818c-0.222,0.163-0.443,0.33-0.661,0.498
	c-0.105,0.078-0.21,0.156-0.311,0.233c-0.004,0-0.007,0-0.007,0.004c-0.385,0.288-0.766,0.575-1.151,0.863
	c-1.827,1.368-3.654,2.737-5.482,4.101c-0.991,0.742-1.978,1.482-2.97,2.216c-1.505,1.12-3.009,2.235-4.517,3.343
	c-0.724,0.537-1.45,1.069-2.177,1.598c-1.041,0.766-2.087,1.528-3.137,2.286c-1.174,0.851-2.344,1.695-3.526,2.535
	c-16.122,11.495-25.985,9.369-37.115-6.835c-33.247-48.408-69.818-94.072-112.437-134.573c-9.085-8.634-10.003-15.764-4.521-26.735
	c10.617-21.238,19.932-43.145,29.258-64.997C196.366,494.667,198.209,493.384,202.999,498.73 M50.574,387.692
	c-0.086-3.394-0.124-6.784-0.124-10.17c-0.062,0.113-0.124,0.226-0.187,0.338c-0.062,0.113-0.124,0.229-0.183,0.346
	c-0.121,0.229-0.241,0.466-0.358,0.704c-0.004,0-0.004,0.004-0.004,0.008c-0.117,0.233-0.233,0.474-0.342,0.715
	c-0.093,0.198-0.187,0.4-0.276,0.606c-0.019,0.047-0.043,0.093-0.062,0.144c-0.093,0.21-0.183,0.424-0.272,0.641
	c-0.342,0.82-0.66,1.676-0.968,2.57c-5.093,14.874-11.08,29.433-15.589,44.548c-0.828,2.78-1.201,5.299-1.042,7.682
	c0.012,0.179,0.027,0.358,0.047,0.537c0.008,0.089,0.016,0.175,0.027,0.264c0.027,0.229,0.058,0.455,0.097,0.68
	c0.035,0.214,0.074,0.428,0.117,0.638c0.082,0.404,0.183,0.801,0.303,1.197c0.035,0.117,0.07,0.237,0.109,0.354
	c0.054,0.175,0.113,0.346,0.175,0.517c0.054,0.155,0.113,0.311,0.175,0.463c3.783-1.469,4.444-6.208,5.011-10.092
	c0.587-3.973-0.113-8.121,0.241-12.149c0.28-3.184-2.558-9.155,5.754-6.119c1.714,0.63,3.028,0.26,4.024-0.634
	c1.019-3.052,1.952-6.135,2.92-9.206v-0.004C50.609,397.434,50.698,392.544,50.574,387.692 M39.65,482.958
	c-0.105,0.284-0.21,0.568-0.323,0.847c-0.078,0.206-0.163,0.412-0.249,0.614c-0.07,0.168-0.144,0.334-0.218,0.502
	c-0.062,0.144-0.128,0.284-0.198,0.428c-0.101,0.222-0.206,0.436-0.315,0.649c-0.229,0.451-0.467,0.89-0.723,1.31
	c-0.047,0.081-0.097,0.163-0.148,0.245c-0.117,0.191-0.237,0.381-0.362,0.564c-1.641,2.453-3.771,3.86-6.726,3.432
	c-3.266-0.474-5.789-2.418-6.45-5.571c-0.047-0.222-0.089-0.444-0.132-0.669c-0.102-0.556-0.183-1.112-0.253-1.656
	c-0.066-0.544-0.121-1.077-0.163-1.59c-0.016-0.19-0.027-0.377-0.039-0.556c-0.012-0.152-0.019-0.3-0.031-0.444
	c-2.321,3.46-1.637,8.798-2.263,12.922c0.117,2.367,0.334,4.696,0.641,6.99c0.91-1.765,2.123-3.059,3.927-3.441
	c1.862-0.393,5.093,2.317,8.518,1.971c1.077-0.109,2.48-0.443,3.511-1.225c1.528-1.158,2.923-3.265,4.152-5.979v-0.007
	C41.356,489.283,40.913,485.788,39.65,482.958 M70.195,671.153c1.042,0.023,2.08,0.031,3.122,0.031
	C72.341,670.954,71.306,670.927,70.195,671.153 M56.887,662.044c-9.431-0.91-18.863-1.819-28.251-3.013
	c1.625,2.888,3.343,5.758,5.171,8.615c0.14,0.222,0.283,0.443,0.428,0.669c7.06,0.863,14.128,1.629,21.219,2.154
	C56.743,667.992,57.109,665.088,56.887,662.044 M28.185,577.687c-0.008-0.047-0.012-0.089-0.019-0.136
	c-7.57-0.847-15.15-1.656-22.739-2.305c0.109,1.551,0.26,3.064,0.381,4.471c0.125,1.478,0.261,2.947,0.409,4.405
	c7.507,0.708,15.01,1.466,22.509,2.228c0.517,0.055,1.022,0.101,1.52,0.148C29.27,583.759,28.624,580.816,28.185,577.687"/>
</svg>
