<?xml version="1.0" encoding="utf-8"?>
<!-- Generator: Adobe Illustrator 17.0.0, SVG Export Plug-In . SVG Version: 6.00 Build 0)  -->
<!DOCTYPE svg PUBLIC "-//W3C//DTD SVG 1.1//EN" "http://www.w3.org/Graphics/SVG/1.1/DTD/svg11.dtd">
<svg version="1.1" id="Layer_1" xmlns="http://www.w3.org/2000/svg" xmlns:xlink="http://www.w3.org/1999/xlink" x="0px" y="0px"
	 width="595.28px" height="213.366px" viewBox="0 0 595.28 213.366" enable-background="new 0 0 595.28 213.366"
	 xml:space="preserve">
<g>
	<g>
		<g>
			<g>
				<g>
					<defs>
						<rect id="SVGID_1_" x="0" y="-1" width="595.28" height="232.397"/>
					</defs>
					<clipPath id="SVGID_2_">
						<use xlink:href="#SVGID_1_"  overflow="visible"/>
					</clipPath>
					<g clip-path="url(#SVGID_2_)">
						<g>
							<path d="M6.667,210.682c4.167-1.31,8.334-2.619,12.62-3.929c23.811-7.143,48.099-12.62,72.624-17.144
								c19.763-3.572,39.765-6.548,59.766-8.81c16.073-1.786,32.264-3.215,48.456-4.524c32.74-2.5,65.6-3.572,98.578-3.095
								c18.692,0.238,37.265,0.833,55.837,1.667c22.144,0.952,44.289,2.857,66.314,5.238c30.716,3.453,61.314,8.096,91.554,14.644
								c19.763,4.286,39.408,9.405,58.695,15.715c0.595,0.238,1.191,0.357,1.667,0.952c-1.31-0.357-2.738-0.595-4.048-0.952
								c-22.502-5.834-45.36-10.358-68.338-14.049c-20.24-3.215-40.479-5.953-60.957-7.977c-18.573-1.786-37.145-3.215-55.718-4.524
								c-38.455-2.5-77.029-3.215-115.603-2.738c-14.882,0.238-29.883,0.476-44.765,1.191c-19.049,0.952-38.098,2.024-57.028,3.453
								c-23.097,1.667-46.194,4.286-69.172,7.501c-29.169,4.167-58.099,9.405-86.673,16.668c-1.191,0.357-2.5,0.595-3.691,0.952
								C6.786,211.039,6.786,210.92,6.667,210.682z"/>
							<path d="M413.124,41.98c1.191,3.095,2.381,6.191,3.691,9.167c1.191,2.976,2.5,5.834,3.81,8.929c-5.596,0-11.072,0-16.668,0
								c-0.833-2.024-1.667-4.048-2.5-6.191c-0.952-2.262-1.786-4.524-2.738-6.667c-1.429-3.453-4.048-4.762-8.096-4.167
								c0,5.596,0,11.31,0,17.025c-5.477,0-10.834,0-16.43,0c0-0.833,0-1.667,0-2.5c0-13.453,0-26.907,0-40.36
								c0-0.952,0-1.905-0.119-2.738c-0.238-2.024-1.072-2.738-3.095-2.738c-0.714,0-1.429,0-2.262,0
								c-0.119-0.714-0.238-1.31-0.238-1.905c0.595-0.238,0.952-0.357,1.429-0.476c3.691-0.476,7.382-0.952,10.953-1.429
								c6.31-0.833,12.739-1.786,19.049-2.381c3.215-0.357,6.429-0.238,9.524,0.119c8.096,1.072,12.739,5.715,13.453,13.81
								c0.357,3.334,0,6.786-0.476,10.12c-0.714,4.643-3.334,8.215-7.262,10.834C414.553,41.027,413.958,41.384,413.124,41.98z
								 M390.504,10.311c0,0.833-0.119,1.548-0.119,2.262c0,7.143,0.119,14.168,0,21.311c0,2.619,0.952,4.048,4.048,4.405
								c4.881,0.595,8.453-1.31,10.596-5.715c2.024-4.286,2.619-8.81,1.905-13.453s-3.572-7.62-8.096-8.81
								C396.099,9.477,393.48,9.477,390.504,10.311z"/>
							<path d="M290.259,49.242c0,3.691,0,7.143,0,10.834c-5.358,0-10.596,0-16.073,0c0-0.714-0.119-1.548-0.119-2.262
								c0-12.62,0-25.359,0-37.979c0-0.595,0-1.191,0-1.667c-0.119-2.976-1.191-4.286-4.167-4.643
								c-0.714-0.119-1.548-0.119-2.5-0.238c-0.119-0.595-0.119-1.191-0.238-1.786c0.357-0.238,0.476-0.357,0.714-0.357
								c0.595-0.119,1.31-0.119,1.905-0.119c8.81,0,17.62-0.119,26.43,0c2.857,0,5.834,0.357,8.691,1.072
								c10.953,2.857,15.954,11.31,13.334,22.263c-2.619,11.191-13.096,17.739-24.764,15.596
								C292.521,49.718,291.568,49.48,290.259,49.242z M290.378,44.004c0.357,0.238,0.714,0.357,0.952,0.476
								c4.048,1.31,8.453-0.714,10.358-5c2.619-6.072,2.857-12.263,0.476-18.454c-1.786-4.643-6.786-7.262-11.787-6.548
								C290.378,24.359,290.378,34.122,290.378,44.004z"/>
							<path d="M338.833,42.456c0,5.953,0,11.667,0,17.62c-5.358,0-10.477,0-15.953,0c0-0.833,0-1.548,0-2.262
								c0-12.739,0-25.478,0-38.217c0-0.595,0-1.191,0-1.667c-0.119-2.857-1.072-3.929-3.929-4.286
								c-0.952-0.119-2.024-0.119-3.215-0.238c-0.119-0.714-0.119-1.31-0.238-1.905c2.143-0.714,45.36-1.905,47.265-1.31
								c0.595,5.477,1.31,11.072,2.024,16.787c-0.476,0.238-0.833,0.476-1.191,0.595c-0.238-0.238-0.476-0.476-0.595-0.714
								c-0.952-2.143-1.786-4.286-2.738-6.429c-1.905-4.286-5.477-6.429-9.882-6.667c-3.691-0.238-7.501,0-11.429,0.119
								c0,8.691,0,17.025,0,25.716c2.619,0,5.238-0.119,7.501-1.072c1.31-0.595,2.619-1.786,3.453-3.095
								c1.191-2.024,2.024-4.405,2.976-6.548c0.357-0.833,0.476-1.667,0.714-2.5c0.476,0,0.952-0.119,1.548-0.119
								c0,9.286,0,18.454,0,27.74c-0.476,0-0.952,0.119-1.429,0.119c-0.357-1.191-0.714-2.381-1.072-3.572
								c-0.119-0.476-0.357-0.952-0.476-1.429c-2.262-5.477-4.524-7.024-10.477-6.786C340.738,42.218,339.905,42.337,338.833,42.456
								z"/>
							<path d="M208.229,11.62c-0.119-0.357-0.238-0.714-0.238-0.952c0-0.357,0.119-0.714,0.238-1.31
								c9.763,0.357,19.406,0.595,29.288,0.952c0,0.833,0,1.429,0,2.143c-1.071,0.119-2.024,0.119-2.857,0.238
								c-2.5,0.357-3.691,1.667-3.691,4.167c0,11.906-0.119,23.692,0.119,35.598c0,2.5,0.833,5,1.429,7.739
								c-5.238,0.238-10.715,0-16.311,0.119c-0.952-2.619-1.191-5.119-1.31-7.739c0-10.834,0-21.668,0-32.383
								c0-1.191,0-2.262,0-3.453c0-2.857-1.191-4.167-3.929-4.762C210.015,11.739,209.181,11.739,208.229,11.62z"/>
							<path d="M172.869,22.931c4.643,4.048,9.763,6.31,15.12,8.453c4.524,1.905,8.572,4.405,12.025,7.977
								c4.881,5.119,7.262,11.31,7.024,18.335c0,0.714-0.119,1.429-0.238,2.5c-4.048,0-7.977,0-11.906,0
								c-1.31-5.238-5.119-8.334-9.405-10.834c-2.857-1.667-5.834-3.095-8.81-4.762c-1.191-0.714-2.5-1.429-3.81-2.143
								C172.869,36.027,172.869,29.717,172.869,22.931z"/>
							<path d="M315.617,75.672c0-0.714-0.119-1.31-0.119-1.786c0.357-0.238,0.476-0.357,0.714-0.357
								c0.952-0.119,2.024-0.119,2.976-0.357c2.5-0.476,3.572-1.667,3.691-4.167c0-2.5,0-5,0-7.501c5.358,0,10.477,0,15.953,0
								c0,1.786,0,3.572,0,5.358c0,4.405,0.833,5.238,5.238,5.238c1.905,0,3.691-0.119,5.596,0c2.381,0,4.524-0.595,6.31-2.143
								s3.453-3.453,5-5.238c0.833-0.952,1.31-2.024,2.024-3.095c0.952,0,2.024,0,3.215,0c-0.714,4.881-1.429,9.524-2.143,14.287
								C347.763,75.672,331.809,75.672,315.617,75.672z"/>
							<path d="M233.469,61.386c5,6.786,14.763,6.191,18.454,0c1.905,0,3.929,0,6.072,0c-0.119,0.595-0.119,1.191-0.238,1.667
								c-2.262,6.905-6.905,11.072-14.049,12.382c-4.881,0.833-9.763,0.595-14.525-0.952c-5.953-2.024-10.001-5.953-12.382-11.787
								c-0.119-0.357-0.238-0.595-0.357-1.191C222.159,61.386,227.754,61.386,233.469,61.386z"/>
							<path d="M171.083,41.027c-9.524-4.643-15.358-16.43-13.096-25.954c1.429-5.834,7.143-10.715,13.096-10.953
								c-0.238,3.095,0.595,6.191-0.833,9.167c-0.833,1.905-0.595,4.048,0.238,6.072c0.238,0.595,0.595,1.31,0.595,2.024
								C171.083,27.812,171.083,34.241,171.083,41.027z"/>
							<path d="M247.398,12.692c0-0.714,0-1.191,0-2.143c6.191,0.238,12.144,0.357,18.454,0.595c0,0.833,0,1.429,0,2.143
								c-0.952,0-1.667,0.119-2.381,0.119c-2.976,0.238-4.167,1.548-4.167,4.524c0,11.31,0,22.621,0,33.931
								c0,2.738-0.238,5.358-0.476,8.215c-2.143,0-4.167,0-6.31,0c1.667-5.119,1.072-10.239,1.191-15.239c0-8.691,0-17.382,0-25.954
								c0-0.595,0-1.191,0-1.667c-0.119-2.381-1.191-3.572-3.572-4.048C249.184,12.93,248.47,12.811,247.398,12.692z"/>
							<path d="M274.186,61.386c5.477,0,10.596,0,16.073,0c0,1.072,0,2.024,0,3.095c0,1.548,0,2.976,0,4.524
								c0.119,2.5,1.31,3.81,3.691,4.167c0.952,0.119,1.905,0.238,3.095,0.357c0,0.714,0,1.31,0,2.024c-9.882,0-19.644,0-29.645,0
								c0-0.595-0.119-1.191-0.119-2.024c0.952-0.119,1.667-0.238,2.381-0.238c3.215-0.357,4.405-1.667,4.524-4.762
								C274.186,66.148,274.186,63.886,274.186,61.386z"/>
							<path d="M368.597,75.434c0-0.595,0-1.191,0-1.786c0.714-0.119,1.191-0.238,1.786-0.238c2.738-0.357,3.691-1.429,3.81-4.286
								c0.119-2.024,0-3.929,0-5.953c0-0.595,0.119-1.072,0.119-1.667c0.476,0,0.952-0.119,1.31-0.119c4.881,0,9.644,0,14.763,0
								c0,1.31,0,2.5,0,3.691c0,0.595,0,1.31,0,1.905c0,5.358,0.357,5.834,5.834,6.548c0.119,0.595,0.119,1.191,0.238,1.786
								C394.79,75.791,370.979,75.911,368.597,75.434z"/>
							<path d="M195.133,61.386c3.691,0,7.501,0,11.31,0c-0.595,3.095-2.143,5.596-4.048,7.739
								c-2.857,3.095-6.429,4.881-10.358,6.191c-6.191,2.024-12.62,1.667-19.049,1.31c0-3.334,0-6.429,0-9.763
								c1.072,0.357,1.905,0.714,2.738,1.072c3.691,1.31,7.501,2.262,11.429,1.667c4.762-0.714,6.786-2.738,7.739-7.501
								C194.895,61.862,195.014,61.624,195.133,61.386z"/>
							<path d="M404.195,61.386c5.953,0,11.429,0,16.906,0c0.714,1.548,1.429,2.976,2.143,4.405
								c2.143,4.643,5.715,7.501,10.953,7.977c0.238,0,0.357,0.119,0.595,0.119c0.119,0,0.119,0.119,0.357,0.238
								c0,0.476-0.119,0.952-0.119,1.548c-0.357,0.119-0.595,0.357-0.833,0.357c-5.119,0-10.239,0.238-15.358,0
								c-4.762-0.357-8.691-2.738-11.191-6.905C406.338,66.862,405.505,64.243,404.195,61.386z"/>
							<path d="M172.869,3.644c4.167-0.476,8.096-0.357,12.025,0.595c3.81,0.952,7.501,2.143,11.191,3.334
								c2.024,0.714,3.929,1.31,5.953,0.952c0.357-0.119,0.714,0.119,1.31,0.238c0.833,6.191,1.667,12.501,2.619,18.93
								c-0.357,0.119-0.833,0.119-1.31,0.238c-0.238-0.595-0.476-1.072-0.595-1.429c-2.738-6.905-7.501-12.025-13.811-15.596
								c-5.477-3.095-11.191-3.691-17.263-1.429C172.869,7.572,172.869,5.787,172.869,3.644z"/>
							<path d="M155.606,61.386c3.453,0,6.429,0,9.524,0c1.905,1.429,3.81,2.857,5.834,4.286c0,3.334,0,6.786,0,10.477
								c-0.476,0-0.952,0.119-1.429,0.119c-2.857-0.595-5.715-1.072-8.572-1.667c-2.024-0.476-3.215-1.786-3.572-3.929
								C156.916,67.577,156.201,64.6,155.606,61.386z"/>
							<path d="M515.065,170.894c0,3.334-2.738,6.072-6.072,6.072c-3.334,0-6.072-2.738-6.072-6.072
								c0-3.334,2.738-6.191,6.072-6.191C512.327,164.822,515.065,167.56,515.065,170.894z"/>
							<path d="M163.464,60.195c-2.619,0-5.238,0-7.977,0c-1.191-4.405-2.381-8.81-3.453-13.215
								c0.595-0.238,1.072-0.476,1.548-0.714C156.797,50.909,160.13,55.552,163.464,60.195z"/>
						</g>
					</g>
				</g>
			</g>
		</g>
	</g>
</g>
<path d="M100.889,149.779c0-15.359,0-30.585,0-46.206c12.076-1.313,22.709,2.1,31.503,10.501
	c10.107,9.713,13.652,21.79,11.551,35.704C129.505,149.779,115.328,149.779,100.889,149.779z"/>
<path d="M100.889,180.889c0-7.744,0-15.49,0-23.234c13.521,0,26.778,0,40.167,0C137.119,169.206,121.892,183.514,100.889,180.889z"
	/>
<path d="M80.938,112.368c0,12.601,0,24.81,0,37.542c-4.594,0-9.057,0.131-13.521,0C64.136,136.915,70.042,119.982,80.938,112.368z"
	/>
<path d="M69.649,157.655c3.938,0,7.482,0,11.158,0c0,4.857,0,9.582,0,14.701C75.818,168.288,72.405,163.562,69.649,157.655z"/>
<path d="M175.085,169.133c-0.113,0.338-0.225,0.788-0.338,1.126c-0.675,2.815-1.914,3.491-5.18,3.041
	c-0.338-0.788-0.788-1.577-1.014-2.59c-4.504-16.328-9.122-32.656-13.626-48.984c-0.225-0.675-0.338-1.352-0.563-2.139
	l-3.349-11.395c-0.45-2.59-4.196-3.805-6.785-4.594c-0.338-0.113-0.788-0.338-1.239-0.563c0-0.675,0-1.239,0-2.027
	c6.31,0.446,12.503,0.446,19.259,0.446c4.166,15.315,8.445,30.629,12.612,45.944c0.113,0,0.338,0,0.45,0
	c3.716-15.315,6.869-30.629,10.923-46.169c6.869,0,2.276,0,9.144,0c0,0.675-0.113,1.239-0.113,1.802
	c-1.239,0.225-2.139,0.45-3.153,0.675c-1.914,0.563-2.065,1.3-2.477,3.153l-0.246,1.216"/>
<path d="M226.319,133.492c0.171,5.951,0.336,11.662,0.507,17.613c-5.356,0.154-10.473,0.302-15.946,0.459
	c-0.024-0.833-0.045-1.547-0.065-2.261c-0.367-12.734-0.733-25.467-1.1-38.201c-0.017-0.595-0.034-1.191-0.048-1.666
	c-0.201-2.852-1.185-3.897-4.051-4.171c-0.955-0.092-2.027-0.061-3.221-0.145c-0.139-0.71-0.157-1.306-0.293-1.897
	c2.122-0.775,45.286-3.21,47.208-2.67c0.752,5.458,1.628,11.03,2.506,16.722c-0.469,0.252-0.819,0.5-1.173,0.629
	c-0.245-0.231-0.49-0.462-0.615-0.697c-1.013-2.115-1.909-4.233-2.922-6.348c-2.028-4.229-5.66-6.269-10.07-6.38
	c-3.696-0.132-7.498,0.216-11.421,0.448c0.25,8.687,0.49,17.018,0.74,25.705c2.618-0.075,5.232-0.27,7.467-1.287
	c1.292-0.632,2.567-1.861,3.362-3.193c1.132-2.057,1.896-4.461,2.786-6.631c0.333-0.843,0.428-1.68,0.642-2.52
	c0.476-0.014,0.948-0.146,1.544-0.163c0.267,9.282,0.531,18.446,0.798,27.729c-0.476,0.014-0.948,0.146-1.425,0.16
	c-0.391-1.18-0.782-2.359-1.174-3.54c-0.133-0.472-0.384-0.941-0.517-1.415c-2.419-5.41-4.724-6.891-10.668-6.482
	C228.216,133.2,227.387,133.343,226.319,133.492z"/>
<path d="M204.069,167.363c-0.021-0.714-0.157-1.306-0.17-1.782c0.35-0.248,0.466-0.371,0.703-0.377
	c0.948-0.146,2.02-0.177,2.964-0.442c2.485-0.548,3.523-1.769,3.57-4.271c-0.072-2.499-0.144-4.998-0.216-7.498
	c5.356-0.154,10.473-0.302,15.946-0.459c0.051,1.785,0.103,3.571,0.154,5.356c0.127,4.403,0.983,5.212,5.387,5.085
	c1.904-0.055,3.686-0.225,5.594-0.161c2.38-0.069,4.505-0.725,6.246-2.324c1.741-1.599,3.352-3.551,4.847-5.38
	c0.805-0.976,1.251-2.061,1.934-3.152c0.952-0.027,2.023-0.058,3.214-0.093c-0.573,4.9-1.154,9.561-1.731,14.343
	C236.201,166.438,220.254,166.897,204.069,167.363z"/>
<path d="M353.779,153.087c-5.357,0.094-10.475,0.185-15.951,0.281c-0.015-0.871-0.029-1.619-0.042-2.366
	c-0.235-13.325-0.47-26.649-0.705-39.974c-0.011-0.622-0.022-1.246-0.031-1.744c-0.172-2.986-1.144-4.091-4.007-4.414
	c-0.954-0.108-2.026-0.089-3.219-0.192c-0.132-0.745-0.143-1.368-0.273-1.988c2.129-0.785,31.948-2.59,33.864-2.001
	c0.696,5.718,0.386,3.889,1.205,9.854c-0.472,0.257-1.797,0.012-2.188,0.039c-0.242-0.245-0.485-0.49-0.608-0.736
	c-0.991-2.225-0.665-1.381-1.656-3.606c-0.605-1.385-2.604-1.763-4.697-1.639c0,0,1.499-0.026-2.426,0.167"/>
<path d="M330.841,169.09c-0.013-0.714-0.142-1.308-0.15-1.784c0.353-0.244,0.47-0.365,0.708-0.37
	c0.95-0.136,2.022-0.155,2.969-0.409c2.491-0.52,3.542-1.73,3.617-4.231c-0.044-2.5-0.088-4.999-0.132-7.5
	c5.357-0.094,10.475-0.185,15.951-0.281c0.031,1.786,0.063,3.571,0.094,5.357c0.078,4.404,0.925,5.223,5.33,5.145
	c1.905-0.034,3.688-0.184,5.595-0.099c2.381-0.042,4.513-0.675,6.271-2.254c1.758-1.579,3.392-3.513,4.907-5.325
	c0.816-0.967,1.274-2.047,1.969-3.13c0.952-0.017,2.024-0.036,3.215-0.057c-0.628,4.893-1.261,9.548-1.891,14.323
	C362.982,168.523,347.031,168.804,330.841,169.09z"/>
<path d="M385.502,167.21c3.201-1.721,5.382-4.335,6.654-7.72c3.228-8.279,6.337-16.564,9.683-24.835
	c4.346-11.075,8.684-22.032,13.148-33.1c0.552-1.28,0.865-2.573,2.781-2.699c-0.724,12.361-1.441,24.603-2.15,36.725
	c-0.119-0.007-0.244,0.105-0.244,0.105c-0.987-3.517-2.085-7.158-3.073-10.675c-0.119-0.007-0.238-0.014-0.357-0.021
	c-2.802,7.11-5.484,14.229-8.418,21.57c4.055-0.001,7.754-0.023,11.57-0.038c-0.084,1.427-0.153,2.614-0.236,4.041
	c-4.3,0.106-8.481,0.219-13.017,0.312c-1.279,3.504-2.802,7.11-3.961,10.62c-0.58,1.756,0.168,3.23,1.91,4.047
	c1.51,0.685,3.153,1.138,4.796,1.593c0.936,0.293,1.881,0.467,1.434,1.992c-0.601,0.084-1.21,0.286-1.93,0.364
	c-14.814,0.445-3.272,0.064-19.143,0.002c-0.238-0.014-0.594-0.035-1.07-0.063c0.035-0.594,0.069-0.189-0.007-0.908"/>
<path d="M448.132,166.94c-0.035,0.594-0.055,0.95-0.098,1.664c-10.026,0.128-20.05,0.258-30.076,0.386
	c-0.532-1.105-0.252-1.803,0.838-2.097c0.727-0.196,1.567-0.266,2.293-0.461c0.845-0.189,1.587-0.622,2.558-0.924
	c-1.253-5.082-2.765-9.823-4.031-14.667c-0.95-0.055-1.902-0.112-2.852-0.167c0.069-1.189,0.146-2.495,0.23-3.922
	c0.244-0.105,0.733-0.315,1.216-0.405c-0.098-0.363-0.077-0.72-0.181-0.964c-0.931-2.439-0.904-4.942-0.751-7.557
	c0.703-12.005,1.406-24.008,2.109-36.013c0.041-0.713,0.09-1.545,0.146-2.495c1.28,0.552,1.336,1.628,1.644,2.482
	c3.436,10.577,6.753,21.146,10.077,31.597c2.925,9.116,6.094,18.127,8.894,27.355c0.994,3.398,3.036,5.186,6.342,5.739
	C447.083,166.521,447.544,166.787,448.132,166.94z"/>
<path d="M481.174,143.982c-0.069,4.094-0.133,7.923-0.201,12.017c-5.943-0.099-11.753-0.197-17.828-0.298
	c0.013-0.792-0.103-1.719-0.09-2.511c0.234-13.998,0.471-28.128,0.705-42.126c0.011-0.66,0.022-1.321,0.031-1.849
	c-0.077-3.303-1.242-4.776-4.536-5.227c-0.79-0.145-1.715-0.161-2.769-0.31c-0.121-0.662-0.11-1.323-0.231-1.985
	c0.4-0.257,0.535-0.387,0.799-0.383c0.662-0.121,1.455-0.108,2.115-0.097c9.772,0.164,19.546,0.195,29.316,0.491
	c3.169,0.053,6.464,0.504,9.62,1.35c12.096,3.372,17.486,12.841,14.377,24.942c-3.113,12.364-14.855,19.433-27.758,16.839
	C483.674,144.552,482.622,144.27,481.174,143.982z M481.403,138.174c0.392,0.271,0.785,0.409,1.047,0.546
	c4.466,1.528,9.389-0.635,11.582-5.354c3.018-6.686,3.397-13.549,0.871-20.46c-1.895-5.183-7.392-8.181-12.953-7.482
	C481.768,116.384,481.587,127.213,481.403,138.174z"/>
<path d="M463.121,157.154c6.075,0.102,11.753,0.197,17.828,0.298c-0.02,1.189-0.038,2.245-0.057,3.433
	c-0.029,1.717-0.055,3.301-0.084,5.018c0.086,2.775,1.382,4.25,4.017,4.691c1.054,0.15,2.109,0.299,3.426,0.453
	c-0.013,0.792-0.024,1.453-0.038,2.245c-10.961-0.183-21.789-0.365-32.882-0.55c0.011-0.66-0.11-1.323-0.094-2.247
	c1.058-0.114,1.853-0.233,2.645-0.22c3.573-0.336,4.917-1.767,5.106-5.198C463.032,162.436,463.074,159.926,463.121,157.154z"/>
<text transform="matrix(1 0 0 1 239.89 207.199)" font-family="'LinuxLibertineGB'" font-size="21">Q   U   I   Z  </text>
<path d="M298.078,98.37c7.575,1.138,14.733,6.325,15.402,14.196c0.335,3.242,0,6.599-0.446,9.84
	c-0.669,4.515-3.125,7.988-6.807,10.535c-0.559,0.579-1.116,0.926-1.898,1.505c1.116,3.01,2.232,6.02,3.46,8.914
	c1.116,2.894,2.343,5.673,3.571,8.682c-5.246,0-10.379,0-15.624,0c-0.781-1.968-1.563-3.936-2.343-6.02
	c-0.892-2.2-1.674-4.399-2.567-6.483c-1.339-3.358-3.794-4.63-7.589-4.052c0,5.441,0,10.998,0,16.555c-5.134,0-10.156,0-15.401,0
	c0-0.81,0-1.621,0-2.431c0-13.081,0-26.164,0-39.245c0-0.926,0-1.852-0.112-2.662c-0.223-1.968-1.005-2.662-2.901-2.662
	c-0.669,0-1.34,0-2.12,0c-0.112-0.694-0.223-4.274-0.223-4.852c0.558-0.231,0.892-0.347,1.34-0.463
	c3.46-0.463,6.901-1.09,10.267-1.39C281.432,97.683,285.182,96.433,298.078,98.37z M283.125,103.653c0,0.81-0.112,1.505-0.112,2.2
	c0,6.946,0.112,13.777,0,20.722c0,2.547,0.892,3.936,3.794,4.283c4.575,0.579,7.924-1.274,9.932-5.557
	c1.897-4.168,2.455-8.567,1.786-13.081c-0.669-4.515-3.348-7.409-7.589-8.567C288.37,102.842,285.915,102.842,283.125,103.653z"/>
<path d="M262.59,166.977c0-0.579,0-1.158,0-1.737c0.669-0.116,1.116-0.231,1.674-0.231c2.567-0.347,3.46-1.39,3.571-4.168
	c0.112-1.968,0-3.82,0-5.789c0-0.579,0.112-1.042,0.112-1.621c0.446,0,0.892-0.116,1.228-0.116c4.575,0,9.04,0,13.839,0
	c0,1.274,0,2.431,0,3.589c0,0.579,0,1.274,0,1.852c0,5.21,0.335,5.673,5.469,6.367c0.112,0.579,0.112,1.158,0.223,1.737
	C287.142,167.324,264.823,167.441,262.59,166.977z"/>
<path d="M295.958,153.317c5.58,0,10.713,0,15.847,0c0.669,1.505,1.34,2.894,2.009,4.283c2.009,4.515,5.357,7.294,10.267,7.757
	c0.223,0,0.335,0.116,0.558,0.116c0.112,0,0.112,0.116,0.335,0.231c0,0.463-0.112,0.926-0.112,1.505
	c-0.335,0.116-0.558,0.347-0.781,0.347c-4.798,0-9.598,0.231-14.396,0c-4.464-0.347-8.147-2.662-10.49-6.714
	C297.967,158.641,297.186,156.095,295.958,153.317z"/>
</svg>
