<?xml version="1.0" encoding="utf-8"?>
<!-- Generator: Adobe Illustrator 17.0.0, SVG Export Plug-In . SVG Version: 6.00 Build 0)  -->
<!DOCTYPE svg PUBLIC "-//W3C//DTD SVG 1.1 Basic//EN" "http://www.w3.org/Graphics/SVG/1.1/DTD/svg11-basic.dtd">
<svg version="1.1" baseProfile="basic" id="Calque_1"
	 xmlns="http://www.w3.org/2000/svg" xmlns:xlink="http://www.w3.org/1999/xlink" x="0px" y="0px" width="2000px" height="2000px"
	 viewBox="0 0 2000 2000" xml:space="preserve">
<path display="none" fill="none" stroke="#000000" stroke-width="5" stroke-miterlimit="10" d="M1000,0C1000,0,0,0,0,1000
	c0,0,0,1000,1000,1000s1000-1000,1000-1000S2000,0,1000,0z"/>
<path fill="#85645C" d="M1194.958,1131.168c-13.017-24.838-30.487-40.663-54.982-49.806l-187.783-70.089l-25.935,69.471
	l94.144,35.099l0.07,0.026c52.976,19.773,91.465,58.989,108.374,110.426l56.878,173.011l122.995-51.057L1194.958,1131.168z
	 M1627.6,1490.298l-25.934,69.482l372.4,138.997l25.934-69.482L1627.6,1490.298z M1304.799,1761.523
	c22.352,67.995,71.186,117.752,141.224,143.894l189.861,70.865c118.04,36.474,242.509-21.171,283.722-131.588l28.528-76.431
	l-372.401-138.997l-19.375,51.909c-5.198,13.927-18.806,23.178-34.575,23.509c-15.776,0.334-30.659-8.324-37.815-21.991
	l-139.515-266.244l-134.711,55.922L1304.799,1761.523z"/>
</svg>
