<?xml version="1.0" encoding="utf-8"?>
<!-- Generator: Adobe Illustrator 17.0.0, SVG Export Plug-In . SVG Version: 6.00 Build 0)  -->
<!DOCTYPE svg PUBLIC "-//W3C//DTD SVG 1.1 Basic//EN" "http://www.w3.org/Graphics/SVG/1.1/DTD/svg11-basic.dtd">
<svg version="1.1" baseProfile="basic" id="Calque_1"
	 xmlns="http://www.w3.org/2000/svg" xmlns:xlink="http://www.w3.org/1999/xlink" x="0px" y="0px" width="2000px" height="2000px"
	 viewBox="0 0 2000 2000" xml:space="preserve">
<path display="none" fill="none" stroke="#000000" stroke-width="5" stroke-miterlimit="10" d="M1000,0C1000,0,0,0,0,1000
	c0,0,0,1000,1000,1000s1000-1000,1000-1000S2000,0,1000,0z"/>
<g>
	<g>
		<path fill="#FFFFFF" d="M1861.541,1334.732c-91.557-65.728-195.762-63.842-195.762-63.842
			c38.448,13.058,70.757,59.225,71.154,98.06c0.397,38.85-36.888,76.925-111.521,113.086
			c-74.609,36.146-158.855,25.351-170.784,16.111c-11.901-9.221-9.589-26.093-18.044-60.368
			c-8.47-34.223-46.822-62.728-46.822-62.728c9.14,14.786,15.307,46.396,15.977,53.578c0.833,9.154,0.211,19.557-9.092,13.695
			c-14.585-9.149-41.176-13.695-56.957-13.695c-15.781,0-42.377,4.546-56.99,13.695c-9.317,5.862-9.939-4.541-9.125-13.695
			c0.67-7.178,6.862-38.764,15.982-53.578c0,0-38.348,28.509-46.803,62.728c-8.446,34.275-6.158,51.143-18.088,60.368
			c-11.905,9.264-96.132,20.025-170.736-16.111c-74.614-36.161-111.947-74.24-111.55-113.086
			c0.373-38.836,32.677-84.988,71.154-98.06c0,0-104.209-1.914-195.767,63.842c-91.51,65.732-139.59,165.774-138.427,228.846
			c1.148,63.062,14.982,194.551,120.756,282.257c0,0-11.264-73.915,8.13-118.402c19.384-44.482,42.199-61.579,76.422-61.579
			c0,0-4.546,44.515,27.395,104.932c31.931,60.445,76.394,107.219,76.394,107.219s31.955-138.021,151.701-145.997
			c119.727-8.001,199.485,267.811,199.537,267.983c0.048-0.172,79.796-275.984,199.518-267.983
			c119.77,7.986,151.682,145.997,151.682,145.997s44.487-46.755,76.427-107.219c31.936-60.416,27.414-104.932,27.414-104.932
			c34.213,0,56.99,17.126,76.394,61.579c19.365,44.487,8.106,118.402,8.106,118.402c105.75-87.706,119.593-219.209,120.761-282.257
			C2001.146,1500.506,1953.079,1400.469,1861.541,1334.732z"/>
		<polygon fill="#FFFFFF" points="1339.677,2000 1339.677,1999.995 1339.672,2000 		"/>
	</g>
</g>
</svg>
