<?xml version="1.0" encoding="utf-8"?>
<!-- Generator: Adobe Illustrator 17.0.0, SVG Export Plug-In . SVG Version: 6.00 Build 0)  -->
<!DOCTYPE svg PUBLIC "-//W3C//DTD SVG 1.1 Basic//EN" "http://www.w3.org/Graphics/SVG/1.1/DTD/svg11-basic.dtd">
<svg version="1.1" baseProfile="basic" id="Layer_1"
	 xmlns="http://www.w3.org/2000/svg" xmlns:xlink="http://www.w3.org/1999/xlink" x="0px" y="0px" width="1024px" height="1024px"
	 viewBox="0 0 1024 1024" xml:space="preserve">
<g>
	<path fill="#1877F2" d="M1024,512C1024,229.23,794.77,0,512,0S0,229.23,0,512c0,255.554,187.231,467.37,432,505.778V660H302V512
		h130V399.2C432,270.88,508.439,200,625.389,200C681.408,200,740,210,740,210v126h-64.563C611.835,336,592,375.467,592,415.957V512
		h142l-22.7,148H592v357.778C836.769,979.37,1024,767.554,1024,512z"/>
	<path fill="#FFFFFF" d="M711.3,660L734,512H592v-96.043C592,375.467,611.835,336,675.437,336H740V210c0,0-58.592-10-114.611-10
		C508.439,200,432,270.88,432,399.2V512H302v148h130v357.778c26.067,4.09,52.784,6.222,80,6.222s53.933-2.132,80-6.222V660H711.3z"
		/>
</g>
</svg>
